<svg width="230" height="228" viewBox="0 0 230 228" fill="none" xmlns="http://www.w3.org/2000/svg">
<path d="M126.412 155.281L120.075 148.582C119.009 147.476 117.98 146.335 116.951 145.194L113.853 141.782C112.761 140.573 111.647 139.38 110.562 138.16C109.483 136.936 108.394 135.722 107.285 134.531C105.809 132.938 104.314 131.362 102.85 129.759L98.5119 124.901C95.5848 121.691 92.8019 118.358 89.9777 115.058L87.869 112.575L85.8154 110.047L81.7132 104.986L80.6912 103.718L79.6976 102.427L77.7122 99.8451L73.7548 94.669L69.0463 88.1733C68.2666 87.0871 67.4705 86.0121 66.7054 84.9157L64.4338 81.6097C62.9285 79.3997 61.3897 77.2118 59.9161 74.9808L55.5419 68.2575C49.8019 59.2363 44.2719 50.0783 39.1567 40.6942C38.3757 39.284 37.6375 37.8415 36.9257 36.3919C36.2378 34.9293 35.5914 33.4513 34.9452 31.9947C33.7131 29.2006 33.4318 27.1322 33.6957 25.6351C34.0813 23.4571 36.2104 24.3894 38.5173 28.0085C39.2479 29.1544 39.959 30.3801 40.642 31.6337C41.3106 32.8946 41.9846 34.1657 42.6399 35.4017C48.4989 46.8608 55.2097 57.872 62.7166 68.3442C63.7494 69.7875 64.8032 71.2603 65.8499 72.7233C66.9116 74.1754 67.9314 75.6398 68.829 77.115C71.652 81.8584 74.9031 86.3399 78.1317 90.8354C79.7839 93.0561 81.4778 95.247 83.1392 97.4602C83.9767 98.5617 84.7922 99.6794 85.6362 100.775L88.1643 104.063C89.4049 105.7 90.6583 107.33 91.9245 108.954C93.2058 110.566 94.5304 112.145 95.8382 113.738L99.783 118.502L103.808 123.196C113.346 134.373 123.342 145.174 133.84 155.491C134.888 156.519 135.903 157.55 136.883 158.584C137.377 159.097 137.842 159.631 138.302 160.159C138.773 160.677 139.235 161.195 139.688 161.712C141.497 163.782 143.15 165.851 144.626 167.9C145.979 169.788 145.142 170.499 142.95 168.971C141.403 167.887 139.831 166.757 138.256 165.599C136.691 164.429 135.07 163.284 133.597 161.99C131.172 159.863 128.847 157.507 126.498 155.236L126.412 155.281Z" fill="black"/>
<path d="M149.248 169.647C137.225 151.662 133.181 136.43 130.848 114.979C147.31 151.612 167.238 175.077 196.001 203.277C165.98 187.787 142.372 183.799 108.667 180.749C120.815 172.925 134.553 170.546 149.006 169.566" fill="black"/>
<path d="M113.518 181.75L112.739 182.159C112.482 182.299 112.233 182.453 111.98 182.6L110.463 183.488L108.967 177.495C117.78 178.451 126.61 179.535 135.42 180.996C138.087 181.413 140.749 181.938 143.414 182.423L147.401 183.231C148.732 183.483 150.054 183.781 151.377 184.072C159.383 185.782 167.264 188.024 174.967 190.783C182.654 193.57 190.16 196.827 197.441 200.535L193.809 205.474C189.364 201.155 184.923 196.825 180.601 192.356C178.418 190.146 176.298 187.867 174.163 185.604C173.093 184.474 172.063 183.303 171.012 182.154C169.968 180.998 168.91 179.855 167.898 178.667L164.855 175.159C163.848 173.982 162.873 172.776 161.881 171.586L160.4 169.794C159.91 169.194 159.438 168.578 158.957 167.97L156.083 164.31L153.306 160.573C152.847 159.947 152.374 159.332 151.926 158.698L150.59 156.79C149.706 155.514 148.796 154.256 147.935 152.964L145.376 149.071C144.507 147.784 143.717 146.447 142.898 145.128L141.678 143.145C141.269 142.485 140.862 141.824 140.483 141.147C138.939 138.455 137.361 135.781 135.93 133.03C132.952 127.586 130.307 121.982 127.718 116.362L134.254 114.616C134.808 119.733 135.487 124.812 136.448 129.802C137.381 134.768 138.663 139.662 140.286 144.45C141.898 149.275 143.794 154.002 145.963 158.607C146.502 159.692 146.957 160.704 147.339 161.647C147.748 162.578 148.088 163.437 148.356 164.238C148.491 164.637 148.606 165.023 148.712 165.39C148.824 165.754 148.92 166.104 149 166.439C149.149 167.045 149.252 167.662 149.308 168.284C149.444 169.918 148.781 170.366 147.541 169.658C146.703 169.124 145.943 168.479 145.283 167.739C144.255 166.585 143.317 165.355 142.476 164.061C139.874 160.023 137.71 155.723 136.023 151.233C133.847 145.427 132.141 139.459 130.92 133.384C129.695 127.353 128.845 121.301 128.145 115.269C128.071 114.632 128.229 113.99 128.59 113.458C128.951 112.926 129.492 112.539 130.115 112.367C130.738 112.196 131.402 112.25 131.989 112.52C132.575 112.791 133.045 113.26 133.313 113.843L133.331 113.883C137.091 122.128 141.379 130.127 146.168 137.83C146.537 138.451 146.932 139.061 147.335 139.669L148.537 141.503L149.738 143.344L150.336 144.266L150.958 145.172C151.784 146.381 152.597 147.591 153.384 148.801C153.58 149.104 153.776 149.406 153.971 149.707L154.573 150.596C154.97 151.189 155.359 151.781 155.739 152.372C160.669 159.933 166.133 167.136 172.092 173.929C178.022 180.786 184.306 187.363 190.607 193.92C192.991 196.432 195.461 198.879 197.918 201.356L197.938 201.375C198.392 201.834 198.667 202.438 198.713 203.079C198.759 203.72 198.573 204.357 198.189 204.874C197.804 205.392 197.246 205.757 196.615 205.903C195.983 206.05 195.32 205.968 194.743 205.674C190.287 203.395 185.79 201.168 181.174 199.225C178.886 198.202 176.547 197.31 174.221 196.384C173.061 195.913 171.872 195.522 170.7 195.085C169.523 194.661 168.353 194.215 167.16 193.84L163.63 192.675C162.448 192.304 161.254 191.966 160.067 191.609L158.284 191.081L156.484 190.604L152.883 189.66C148.054 188.493 143.183 187.467 138.269 186.613C128.44 184.902 118.476 183.757 108.484 182.741L108.438 182.736C108.022 182.694 107.63 182.524 107.316 182.251C107.003 181.977 106.783 181.614 106.687 181.211C106.592 180.808 106.625 180.385 106.783 180.002C106.941 179.618 107.216 179.293 107.569 179.072C111.273 176.762 115.208 174.837 119.311 173.328C121.614 172.48 123.97 171.778 126.363 171.228C128.656 170.692 130.977 170.286 133.317 170.011C137.654 169.504 142.031 169.408 146.387 169.726C148.281 169.885 149.178 170.242 149.072 170.685C148.965 171.115 147.859 171.682 145.742 172.114C139.624 173.013 133.572 174.313 127.626 176.005C126.407 176.35 125.209 176.761 123.993 177.139C122.8 177.568 121.586 177.963 120.409 178.443C119.212 178.882 118.057 179.413 116.893 179.921L115.182 180.752C114.608 181.022 114.067 181.349 113.51 181.646L113.518 181.75Z" fill="black"/>
</svg>
