<svg width="304" height="304" viewBox="0 0 304 304" fill="none" xmlns="http://www.w3.org/2000/svg">
<g clip-path="url(#clip0_105_14)">
<path d="M216.902 177.305C210.4 178.076 203.855 178.608 197.281 178.774C190.696 178.948 184.105 178.724 177.542 178.104C170.551 177.442 163.615 176.269 156.787 174.595C147.616 172.398 138.783 168.938 130.538 164.314C126.392 161.97 122.459 159.263 118.783 156.224C116.871 154.671 115.093 152.957 113.469 151.101C111.73 149.127 110.326 146.881 109.313 144.451C108.764 143.112 108.416 141.7 108.283 140.26C108.127 138.649 108.354 137.026 108.946 135.525C109.576 133.972 110.61 132.62 111.94 131.611C113.169 130.682 114.573 130.013 116.069 129.645C117.449 129.298 118.872 129.15 120.296 129.205C121.621 129.265 122.939 129.449 124.231 129.755C126.629 130.298 128.979 131.039 131.257 131.972C135.762 133.812 140.004 136.252 143.868 139.226C147.748 142.211 151.184 145.741 154.068 149.707C157.674 154.635 160.244 160.246 161.619 166.195C161.794 167.008 161.918 167.831 161.99 168.659C162.065 169.514 162.07 170.374 162.004 171.23C161.903 172.975 161.5 174.687 160.814 176.29C160.111 177.913 159.108 179.387 157.859 180.633C156.665 181.818 155.303 182.818 153.816 183.601C151.035 185.026 148.035 185.973 144.938 186.404C143.457 186.639 141.964 186.795 140.466 186.872C139.722 186.91 138.979 186.938 138.237 186.942C137.492 186.951 136.791 186.927 136.066 186.921C130.316 186.843 124.575 186.386 118.879 185.552C96.0822 182.12 74.46 173.024 55.9742 159.089C55.2722 158.581 54.5972 158.034 53.9161 157.495C53.2393 156.951 52.5494 156.423 51.8857 155.861C50.5616 154.733 49.2235 153.623 47.9513 152.439C45.3621 150.125 42.9209 147.666 40.5656 145.189C38.6929 143.206 36.9427 141.109 35.3252 138.911C34.6818 138.012 34.1233 137.204 33.6538 136.469C33.1988 135.722 32.8219 135.058 32.5139 134.469C31.6172 132.754 31.929 132.532 33.2021 133.586C33.5204 133.85 33.8988 134.193 34.3334 134.614C34.7631 135.037 35.2603 135.528 35.8248 136.084C36.3862 136.641 37.0007 137.27 37.6685 137.97C38.3497 138.656 39.095 139.401 39.8825 140.218C44.0694 144.493 48.4847 148.536 53.1084 152.328C63.6714 160.994 75.5135 167.944 88.2003 172.922C100.818 177.925 114.143 180.848 127.66 181.577C128.588 181.617 129.52 181.657 130.456 181.696C131.391 181.709 132.33 181.721 133.27 181.733C134.21 181.76 135.151 181.716 136.092 181.71C137.035 181.696 137.978 181.691 138.871 181.638C142.351 181.511 145.791 180.875 149.083 179.749C151.518 178.868 153.637 177.497 154.947 175.655C155.598 174.72 156.06 173.666 156.308 172.551C156.436 171.969 156.514 171.376 156.542 170.78C156.585 170.179 156.572 169.576 156.502 168.977C156.432 168.349 156.323 167.725 156.174 167.11L155.633 165.114C155.418 164.455 155.21 163.793 154.985 163.136C154.729 162.49 154.498 161.834 154.225 161.194C153.131 158.623 151.776 156.171 150.181 153.877C146.961 149.263 142.925 145.282 138.276 142.132C135.947 140.555 133.495 139.173 130.943 137.998C128.429 136.826 125.806 135.909 123.113 135.261L122.371 135.1L122 135.021L121.661 134.963C121.215 134.886 120.765 134.834 120.313 134.807C119.447 134.752 118.578 134.812 117.729 134.983C116.962 135.135 116.231 135.428 115.572 135.847C115.279 136.032 115.012 136.255 114.777 136.509C114.55 136.744 114.358 137.01 114.208 137.3C114.048 137.59 113.931 137.901 113.86 138.225C113.777 138.573 113.735 138.931 113.734 139.29C113.743 140.116 113.882 140.937 114.145 141.722C114.439 142.606 114.821 143.458 115.286 144.266C115.77 145.114 116.316 145.926 116.918 146.694C118.197 148.296 119.619 149.777 121.166 151.119C121.952 151.816 122.766 152.497 123.603 153.169C124.436 153.833 125.28 154.481 126.137 155.113C129.596 157.63 133.241 159.876 137.04 161.832C143.864 165.333 151.063 168.029 158.493 169.868C165.969 171.716 173.59 172.89 181.265 173.376C185.111 173.632 188.966 173.749 192.829 173.729C194.759 173.713 196.688 173.68 198.618 173.582L201.514 173.449L204.407 173.255C206.338 173.142 208.263 172.931 210.191 172.769C212.115 172.55 214.043 172.372 215.964 172.111C219.812 171.646 223.647 171.046 227.478 170.418C239.697 168.355 251.217 166.142 261.683 164.998C266.494 164.468 266.504 165.865 261.163 167.516C253.577 169.761 245.549 171.908 237.449 173.707C230.793 175.198 223.845 176.286 216.95 177.201C216.935 177.236 216.921 177.268 216.902 177.305Z" fill="black"/>
<path d="M221.661 155.155C225.467 156.65 229.38 157.848 233.366 158.736C234.431 158.944 235.498 159.162 236.571 159.354C237.652 159.51 238.736 159.652 239.819 159.763C244.517 160.156 249.282 160.187 254.082 160.139L261.305 160.024C263.717 159.984 266.142 159.918 268.563 159.938L268.599 159.938C269.432 159.945 270.23 160.285 270.818 160.882C271.407 161.48 271.736 162.286 271.735 163.124C271.731 163.653 271.596 164.171 271.343 164.633C271.091 165.095 270.727 165.486 270.286 165.77L264.541 169.429C258.371 173.408 252.193 177.386 245.977 181.332C239.759 185.276 233.505 189.187 227.121 192.948C225.174 194.06 223.167 195.064 221.109 195.956C219.171 196.834 217.642 196.91 216.509 196.585C214.857 196.102 215.342 194.377 217.742 192.656C219.333 191.534 220.99 190.508 222.704 189.584C230.482 185.207 237.969 180.33 245.119 174.982C247.104 173.51 249.12 171.9 251.226 170.736C256.685 167.717 261.833 164.145 267.06 160.715L268.6 165.927C267.148 165.942 265.699 165.934 264.25 165.879C258.534 165.684 252.763 165.8 246.953 165.467C241.73 165.206 236.533 164.539 231.407 163.472C226.29 162.352 221.278 160.786 216.426 158.791C215.466 158.392 214.529 157.975 213.623 157.537C212.73 157.07 211.871 156.578 211.045 156.062C209.44 155.072 207.961 153.889 206.641 152.538C206.055 151.933 205.919 151.369 206.164 150.991C206.404 150.623 207.041 150.399 207.948 150.588C209.201 150.921 210.45 151.334 211.711 151.725C212.975 152.108 214.232 152.531 215.475 152.97C216.506 153.296 217.525 153.687 218.541 154.098L219.303 154.407L220.073 154.688C220.587 154.872 221.1 155.056 221.613 155.239L221.661 155.155Z" fill="black"/>
</g>
<defs>
<clipPath id="clip0_105_14">
<rect width="230" height="228" fill="white" transform="translate(95.3052 303.68) rotate(-114.255)"/>
</clipPath>
</defs>
</svg>
