<svg width="194" height="195" viewBox="0 0 194 195" fill="none" xmlns="http://www.w3.org/2000/svg">
<path d="M59.8843 35.9229C61.4674 38.5554 63.3298 41.0397 65.5104 43.1886C66.5968 44.265 67.7414 45.2751 68.9674 46.176C70.1935 47.073 71.4778 47.8764 72.8203 48.5667C73.9532 49.1556 75.1366 49.6236 76.3356 50.037L76.4636 50.0799C77.744 50.5245 78.4269 51.9285 77.9846 53.2155C77.7595 53.8746 77.2784 54.3777 76.6964 54.6507C74.7021 55.5789 72.6884 56.3979 70.76 57.2325C69.08 57.9618 67.4659 58.6833 65.9682 59.5062C64.4666 60.3213 63.097 61.2651 61.8205 62.3454C61.5023 62.6145 61.1842 62.8875 60.8854 63.1839L60.4276 63.6168C60.2801 63.7611 60.1792 63.8976 60.0551 64.0341C59.8145 64.311 59.5623 64.5606 59.3373 64.9077C59.1083 65.2392 58.8639 65.5356 58.6466 65.8944L57.9948 66.963C57.7814 67.3257 57.5874 67.7157 57.3856 68.0901L57.083 68.6556L56.8036 69.2484L56.2449 70.4301C54.8248 73.6515 53.6492 77.0523 52.6637 80.4999C52.1903 82.2276 51.7286 83.9631 51.3678 85.7025C51.0069 87.4341 50.681 89.1852 50.5219 90.8388C50.3667 92.4573 48.935 93.6429 47.3248 93.4869C46.0987 93.366 45.121 92.5041 44.795 91.3809L44.7873 91.3458C44.1781 89.232 43.794 87.2235 43.4176 85.2306L42.3662 79.3377C41.7919 76.1436 41.1789 72.9924 40.3292 70.0518C39.8946 68.5971 39.3863 67.2009 38.7927 65.9958L38.3232 65.1612C38.1369 64.8765 37.9313 64.584 37.7373 64.2954C37.3183 63.726 36.8837 63.1605 36.3948 62.6223C35.4365 61.5381 34.3617 60.5124 33.2093 59.5491C32.0492 58.5975 30.8193 57.7044 29.5389 56.8737C26.9781 55.2162 24.2116 53.8122 21.3792 52.7007C19.7884 52.0767 19.0008 50.271 19.6255 48.672C19.9436 47.8491 20.5722 47.2407 21.3249 46.9287L21.3521 46.917C23.5908 45.9966 25.8257 45.0723 27.9093 43.9842C30.0316 42.939 31.9833 41.7144 33.7797 40.3533L35.095 39.3003L36.3017 38.1498C36.7246 37.7832 37.0661 37.3464 37.4347 36.933C37.7878 36.5079 38.1913 36.1218 38.4939 35.6499L39.4678 34.2966C39.7743 33.8286 40.042 33.3294 40.333 32.8536L40.7637 32.1282C40.8956 31.8747 41.012 31.6134 41.1362 31.3599L41.8773 29.8194C43.146 26.871 44.2557 23.7042 45.2024 20.5062C45.412 19.734 45.637 19.032 45.8776 18.4002C45.9978 18.0843 46.122 17.784 46.25 17.4993C46.285 17.4135 46.3044 17.394 46.3315 17.355C46.3548 17.3199 46.382 17.2848 46.4091 17.2536C46.4634 17.1873 46.5216 17.1249 46.5876 17.0625C46.8437 16.8129 47.1968 16.5555 47.5382 16.1967C47.8835 15.8418 48.2056 15.4011 48.4616 14.937C49.2066 13.5603 49.3075 12.7374 49.7847 13.2717C49.9011 13.4082 50.0408 13.6383 50.196 13.9971C50.3512 14.352 50.518 14.8473 50.6383 15.4791C50.7586 16.107 50.8168 16.8636 50.7896 17.6553C50.7819 17.8503 50.7702 18.0609 50.7586 18.2442C50.747 18.3768 50.7392 18.5133 50.7276 18.6537C50.7043 18.9345 50.6732 19.2231 50.6344 19.5234C50.5413 20.2839 50.4288 21.0561 50.3046 21.84C50.1727 22.6239 49.971 23.4117 49.7886 24.2034C49.451 25.7907 48.8807 27.3663 48.3685 28.8873C48.1008 29.5737 47.8059 30.2523 47.5266 30.9348L47.1036 31.9566L46.607 32.955C46.2656 33.618 45.9552 34.2927 45.5865 34.9401L44.4187 36.8628C42.7619 39.3744 40.756 41.6793 38.4862 43.6371L36.7402 45.0372C36.1465 45.4818 35.5296 45.8796 34.9204 46.3047C34.319 46.7415 33.6866 47.0964 33.058 47.4708C32.4295 47.8413 31.8087 48.2352 31.1646 48.5511L29.2517 49.5573L27.3195 50.4777L26.3534 50.934L25.3834 51.3591L23.4395 52.2132L23.4162 47.3694C26.3767 48.4575 29.2246 49.7796 31.9639 51.3552C33.7448 52.3809 35.5218 53.5236 37.1863 54.8496C38.8509 56.1717 40.399 57.681 41.6639 59.3892C42.0751 59.982 42.5058 60.5475 42.8783 61.1754C43.0684 61.4913 43.2702 61.7682 43.4487 62.1192L43.9802 63.141C44.1742 63.4842 44.279 63.8157 44.4303 64.155C44.5661 64.4904 44.7213 64.8297 44.8377 65.1612C45.055 65.8242 45.3188 66.495 45.4973 67.1502C46.2888 69.7866 46.8243 72.3762 47.317 74.9424C47.802 77.5086 48.2211 80.0553 48.6518 82.5591C49.0863 85.0551 49.5209 87.5472 50.1184 89.7975L44.9852 90.2499C45.218 88.1985 45.6254 86.2953 46.0832 84.3999C46.638 82.1379 47.2782 79.9227 47.9883 77.7192C48.6944 75.5157 49.4665 73.3317 50.3589 71.175C51.2514 69.0183 52.2058 66.8772 53.4319 64.7907C54.0488 63.7494 54.7084 62.7159 55.5038 61.7097C55.6008 61.5849 55.6901 61.4562 55.7987 61.3314L56.1363 60.9609L56.8192 60.2277C57.0481 59.982 57.2692 59.8065 57.4982 59.5959C57.7271 59.3931 57.9444 59.1825 58.181 58.9914C59.4188 57.9267 60.7729 56.979 62.1736 56.1483C63.5742 55.3176 65.0176 54.6195 66.4454 53.9955C69.3089 52.7553 72.0714 51.7413 74.7021 50.4972L75.0086 54.4245C72.4478 53.5977 70.0189 52.4238 67.7763 50.9964C65.5453 49.5495 63.5044 47.853 61.6536 45.9888C59.8145 44.1129 58.1733 42.0615 56.7183 39.8931C55.2672 37.7286 54.0411 35.3847 53.009 33.0213C51.6937 29.9832 50.7819 26.9178 50.1921 23.9421C49.5946 20.9664 49.323 18.0726 49.3191 15.327C49.323 14.2935 49.5442 13.6695 49.8662 13.4979L49.5131 14.3949C49.4278 14.4729 49.2997 14.5431 49.1717 14.5743C49.0436 14.6055 48.9234 14.6055 48.838 14.5977C48.6634 14.5782 48.5974 14.5548 48.5819 14.5782C48.5742 14.5977 48.6207 14.6718 48.8147 14.7459C48.9117 14.781 49.0514 14.8122 49.2143 14.7966C49.3773 14.7849 49.5558 14.7264 49.6877 14.6445L50.1611 13.4394C50.5801 13.4862 51.0729 14.1453 51.4919 15.4206C52.7452 19.2426 54.0411 23.1972 55.5543 26.9607C56.7881 30.0495 58.0763 33.1734 59.7873 35.9268C59.8145 35.919 59.8417 35.9112 59.8766 35.9034L59.8843 35.9229Z" fill="black"/>
<path d="M127.59 75.6092C128.113 77.138 128.672 78.6551 129.254 80.1488C129.402 80.5154 129.549 80.9054 129.697 81.2486C129.844 81.5723 129.972 81.9077 130.135 82.2275C130.449 82.8671 130.795 83.495 131.179 84.0956C132.719 86.5097 134.861 88.5767 137.394 90.1913C139.552 91.5992 141.992 92.6912 144.53 93.518C145.81 93.9353 146.509 95.3159 146.097 96.599C145.896 97.2269 145.465 97.7144 144.933 98.003L144.867 98.0381C144.332 98.3267 143.789 98.588 143.273 98.9156C140.297 100.713 137.623 103.143 135.299 105.869C132.971 108.599 130.992 111.653 129.402 114.874C127.815 118.096 126.608 121.501 125.972 124.952C125.339 128.396 125.277 131.902 126.061 135.084L120.291 136.27C119.682 132.885 119.089 129.523 118.367 126.235C117.719 123.275 116.982 120.362 116.058 117.546C115.131 114.734 114.021 112.016 112.671 109.457C112.33 108.825 111.969 108.194 111.612 107.577C111.247 106.977 110.871 106.388 110.467 105.826C109.664 104.695 108.787 103.646 107.84 102.726C105.943 100.877 103.751 99.641 101.504 99.3407C99.8128 99.1145 98.6216 97.5506 98.8466 95.8502C98.9786 94.8635 99.5528 94.0484 100.34 93.5804L100.364 93.5687C102.416 92.3675 104.314 90.9362 105.955 89.228C106.382 88.8185 106.754 88.3544 107.154 87.9176C107.522 87.4496 107.91 87.0011 108.256 86.5136C108.973 85.562 109.614 84.5402 110.207 83.4872C112.59 79.2674 114.017 74.4002 114.91 69.4004C115.488 66.1283 116.047 62.7665 116.454 59.4242C116.644 57.8252 116.927 56.5031 117.281 55.4189C117.455 54.8768 117.653 54.3932 117.866 53.9642C117.971 53.621 118.111 53.2388 118.278 52.9541C118.445 52.6577 118.631 52.4393 118.782 52.3028C119.651 51.6359 118.984 52.8098 120.02 53.7614C120.272 53.9759 120.641 54.05 120.881 54.0149C121.001 54.011 121.091 53.9681 121.149 53.9993C121.203 54.1826 121.258 54.3737 121.304 54.5804C121.506 55.4033 121.638 56.4212 121.68 57.6146C121.785 60.6371 121.545 63.956 121.048 67.0721C120.571 70.0712 119.958 73.0586 119.116 76.0148C118.693 77.489 118.223 78.9593 117.669 80.4023C117.121 81.8492 116.508 83.2805 115.802 84.6728C114.409 87.4652 112.652 90.125 110.533 92.4923C109.466 93.6701 108.322 94.7777 107.096 95.7995C105.862 96.8057 104.562 97.7261 103.208 98.5607L102.234 93.635C105.047 93.9509 107.697 95.1014 109.877 96.6536C111.713 97.9523 113.342 99.5162 114.7 101.213C115.391 102.059 116.008 102.94 116.567 103.841L116.974 104.52C117.098 104.746 117.218 104.972 117.343 105.198C117.579 105.651 117.824 106.099 118.033 106.556C120.225 111.216 121.75 116.052 122.949 120.876C124.144 125.709 125.006 130.549 125.797 135.322L125.805 135.369C126.042 136.808 125.075 138.173 123.64 138.411C122.259 138.641 120.947 137.74 120.641 136.383C120.051 133.746 119.892 131.071 120.105 128.478C120.516 123.618 121.882 118.993 123.826 114.683C125.789 110.382 128.342 106.372 131.458 102.827C134.632 99.2237 138.403 96.0491 142.865 93.8846L143.164 97.9094C141.752 97.418 140.343 96.911 138.974 96.2675C137.6 95.6513 136.261 94.9259 134.969 94.1108C133.674 93.3074 132.447 92.3675 131.295 91.3418C130.143 90.3161 129.076 89.1734 128.145 87.9254C127.209 86.6813 126.395 85.3436 125.731 83.9357C125.576 83.5847 125.397 83.222 125.258 82.8827L124.843 81.8726C124.567 81.1979 124.307 80.5232 124.047 79.8446C123.019 77.1341 122.076 74.4041 121.223 71.6351C120.272 68.5463 119.539 65.4692 119.147 62.4545C118.767 59.4515 118.689 56.468 119.283 53.777C119.469 53.0867 119.702 52.6265 119.946 52.4081L119.892 52.1C119.868 51.9596 119.795 51.7919 119.686 51.6593C119.577 51.5228 119.453 51.4292 119.356 51.3629C119.162 51.2303 119.061 51.1601 119.042 51.0821C119.03 51.0119 119.081 50.9144 119.391 50.891C119.543 50.8832 119.783 50.9144 120.051 51.0587C120.319 51.1952 120.567 51.4487 120.718 51.6866L120.866 52.5056C120.994 52.6655 121.102 52.8995 121.192 53.1959C121.285 53.4962 121.32 53.8472 121.401 54.3074C121.475 54.7676 121.51 55.2161 121.611 55.688C121.7 56.156 121.789 56.6279 121.882 57.0998C122.107 58.0553 122.313 59.0108 122.581 59.9819C123.089 61.9163 123.671 63.878 124.303 65.828C125.328 69.0338 126.321 72.3761 127.524 75.5975C127.555 75.5975 127.582 75.5975 127.617 75.5975L127.59 75.6092Z" fill="black"/>
<path d="M77.3831 132.783C78.3453 135.556 79.9749 137.892 82.3146 139.561C82.5318 139.745 82.7879 139.881 83.0324 140.029L83.7734 140.478C84.2934 140.743 84.8366 140.969 85.372 141.211L85.5621 141.297C86.7804 141.847 87.3236 143.282 86.7766 144.507C86.5049 145.119 86.0006 145.564 85.4224 145.786C84.9956 145.95 84.5727 146.113 84.1614 146.285C83.3078 146.64 82.4969 146.995 81.7791 147.377C81.0613 147.763 80.4328 148.169 79.8702 148.652C78.7527 149.612 77.7672 150.946 76.9369 152.4C76.1143 153.863 75.4392 155.438 75.0357 156.979C74.6244 158.504 74.5429 160.044 74.8533 160.984L69.1652 162.415C68.7268 160.489 68.2612 158.617 67.6908 156.838C66.814 154.108 65.6655 151.601 64.0475 149.588C62.4334 147.564 60.3654 146.024 58.1615 145.427C56.5164 144.982 55.5464 143.282 55.9888 141.628C56.206 140.821 56.7221 140.174 57.3855 139.776L57.5252 139.694L58.278 139.246L58.6543 139.023L59.0113 138.766L59.733 138.255L60.4158 137.678L60.7573 137.389L61.0793 137.073L61.7273 136.438L62.3325 135.751L62.6352 135.408C62.7322 135.291 62.8253 135.162 62.9184 135.041C64.451 133.099 65.7198 130.861 66.717 128.458C67.3572 126.949 68.1099 125.432 68.7578 123.88C69.0876 123.146 69.4485 122.554 69.9063 122.101C70.3448 121.641 70.8453 121.309 71.3846 121.079C72.1684 120.744 72.8784 120.869 73.3673 121.415C73.8523 121.957 74.1394 122.928 73.992 124.195C73.8135 125.798 73.3091 127.499 72.6378 129.031C72.3274 129.796 71.955 130.545 71.6135 131.297L71.0509 132.409L70.7677 132.963L70.4612 133.509C69.6774 134.975 68.7539 136.387 67.7645 137.752C66.7713 139.121 65.6228 140.4 64.389 141.609C63.128 142.798 61.7234 143.859 60.2102 144.795L59.6592 139.854C60.8581 140.127 62.0222 140.548 63.1163 141.082C65.2775 142.12 67.3106 143.649 68.5794 145.521C69.4407 146.761 70.1779 148.071 70.822 149.378C71.4661 150.684 72.0015 152.014 72.4788 153.34C73.4177 156 74.0773 158.66 74.5856 161.265L74.5972 161.331C74.8766 162.759 73.9532 164.147 72.5331 164.428C71.179 164.697 69.8598 163.858 69.495 162.544C69.1187 161.175 69.107 159.869 69.2467 158.668C69.4136 157.26 69.7627 155.965 70.1895 154.736C70.6202 153.508 71.1402 152.342 71.7338 151.215C72.3274 150.091 72.9948 149.011 73.7708 147.974C74.5507 146.94 75.4276 145.942 76.5023 145.068C77.6353 144.128 78.939 143.395 80.1728 142.861C81.4183 142.311 82.5939 141.909 83.7424 141.492L83.789 145.544C80.8402 144.397 78.066 142.502 76.0018 140.01C75.7535 139.694 75.5207 139.366 75.2801 139.043L74.927 138.555C74.8184 138.388 74.7214 138.216 74.6166 138.044L74.0075 137.019L73.4914 135.954L73.2354 135.424L73.022 134.881L72.599 133.793L72.2537 132.69C72.1373 132.323 72.0248 131.956 71.9433 131.582C71.8386 131.161 71.7415 130.74 71.6562 130.322C71.5902 129.905 71.5282 129.488 71.4777 129.074C71.4195 128.661 71.3924 128.251 71.3807 127.846C71.3652 127.44 71.3536 127.039 71.3613 126.641C71.4156 125.05 71.6562 123.536 72.149 122.125C72.5951 120.826 73.8872 120.861 74.2713 122.261C74.8262 124.246 75.3189 126.274 75.8699 128.193C76.3083 129.772 76.6692 131.368 77.2783 132.807C77.3055 132.799 77.3326 132.795 77.3637 132.787L77.3831 132.783Z" fill="black"/>
<path d="M167.674 36.235C168.023 37.4518 168.5 38.6179 169.055 39.7372C169.203 40.0102 169.327 40.3027 169.494 40.564L169.971 41.3674C170.32 41.8744 170.662 42.4009 171.057 42.8689C171.628 43.6021 172.291 44.2495 172.99 44.8462L173.021 44.8735C174.068 45.7666 174.2 47.3422 173.312 48.3991C173.172 48.5668 173.001 48.7189 172.83 48.8398C172.524 49.0543 172.217 49.2727 171.919 49.495C169.979 51.1174 168.376 53.2624 167.263 55.6375C166.7 56.8192 166.246 58.0555 165.943 59.284C165.878 59.5882 165.788 59.8963 165.749 60.1966C165.699 60.4969 165.641 60.8011 165.621 61.0858L165.579 61.5148V61.9126L165.567 62.1115C165.567 62.1739 165.579 62.2285 165.583 62.2831C165.594 62.3962 165.602 62.5093 165.606 62.6224L165.614 62.7589C165.684 64.3696 164.442 65.7385 162.839 65.8087C161.547 65.8672 160.411 65.0599 159.984 63.9055C159.573 62.7862 159.223 61.6708 158.928 60.6256C158.63 59.5843 158.362 58.5664 158.063 57.6616C157.993 57.4315 157.92 57.2092 157.842 57.0025C157.764 56.7919 157.695 56.5735 157.613 56.3707C157.442 55.9807 157.287 55.5712 157.093 55.2319C156.922 54.8575 156.701 54.5572 156.507 54.2257C156.399 54.0736 156.278 53.9371 156.17 53.7889L156.003 53.5705L155.809 53.3794C154.823 52.3381 153.477 51.5503 151.816 51.016C150.198 50.4973 149.306 48.7579 149.822 47.1316C150.059 46.3828 150.555 45.79 151.176 45.4156L151.328 45.3259L152.088 44.8696C152.216 44.7916 152.344 44.7214 152.468 44.6434L152.821 44.3821C153.054 44.2066 153.302 44.0467 153.531 43.8634L154.191 43.2901C155.033 42.4828 155.836 41.6209 156.469 40.5991C157.116 39.5968 157.691 38.5165 158.125 37.3465C158.374 36.781 158.533 36.1609 158.738 35.5642L158.979 34.636L159.099 34.1719L159.192 33.6961C159.487 32.3896 159.848 31.0363 160.189 29.6791C160.259 29.3515 160.364 29.0551 160.492 28.7821C160.628 28.4857 160.764 28.3765 160.969 27.7837C161.179 27.3196 161.45 26.9569 161.718 26.7424C161.986 26.524 162.234 26.4382 162.436 26.4382C163.022 26.4577 163.162 27.265 163.74 27.9202C164.011 28.2478 164.43 28.5052 164.803 28.5169C164.985 28.5286 165.133 28.4896 165.222 28.4545L165.237 28.4467C165.237 28.4467 165.249 28.4467 165.249 28.4662L165.272 28.5559C165.284 28.6144 165.299 28.6768 165.311 28.7392C165.334 28.864 165.354 28.9927 165.369 29.1292C165.404 29.4685 165.427 29.8195 165.439 30.1705C165.439 30.5254 165.42 30.8842 165.393 31.243C165.354 31.9606 165.214 32.6821 165.07 33.3802C164.702 34.9792 164.298 36.5743 163.72 38.1421C163.154 39.706 162.502 41.2582 161.637 42.7285C159.972 45.6886 157.555 48.3601 154.629 50.2906C154.463 50.4037 154.3 50.5207 154.129 50.6338L153.671 45.3103C154.517 45.5677 155.386 45.7627 156.228 46.18C156.651 46.3711 157.066 46.5622 157.458 46.8391C157.656 46.9678 157.846 47.1004 158.036 47.2408C158.226 47.3734 158.409 47.5177 158.575 47.6893C159.724 48.7189 160.694 49.9669 161.466 51.2422C162.246 52.5292 162.777 53.8669 163.196 55.1344C163.619 56.4019 163.945 57.6382 164.244 58.7887C164.547 59.9392 164.842 61.0273 165.156 62.0491L160.135 63.1918C160.123 62.6848 160.092 62.1427 160.151 61.6864C160.24 60.4696 160.484 59.3854 160.775 58.3207L161 57.5329L161.264 56.7646C161.431 56.2459 161.644 55.7584 161.842 55.2592C162.669 53.2819 163.747 51.4294 165.074 49.7485C166.541 47.9116 168.295 46.258 170.343 44.9905L170.204 48.5161C168.147 46.804 166.44 44.737 165.187 42.475L164.717 41.6248L164.298 40.7551L164.089 40.3222L163.906 39.8776L163.542 38.9884C163.103 37.7911 162.708 36.5821 162.424 35.3497C161.734 32.5183 161.885 29.6752 162.991 27.3508C163.138 27.0388 163.356 26.8243 163.592 26.7229C163.635 26.7034 163.654 26.6566 163.635 26.6137C163.635 26.6059 163.627 26.5981 163.619 26.5903L163.262 26.1964C163.115 26.0326 162.847 25.9468 162.684 25.9156C162.514 25.8805 162.413 25.8532 162.374 25.7869C162.339 25.7245 162.358 25.6153 162.552 25.4866C162.649 25.4242 162.801 25.3579 163.002 25.3345C163.2 25.3072 163.441 25.3345 163.654 25.4008L164.477 26.7229C164.756 26.8555 164.993 27.1285 165.105 27.5341C165.559 29.1526 165.99 30.7867 166.463 32.3662C166.848 33.661 167.127 35.0065 167.585 36.274C167.612 36.2662 167.639 36.2623 167.67 36.2545L167.674 36.235Z" fill="black"/>
<path d="M159.635 154.374C159.709 154.694 159.783 155.025 159.864 155.329C159.903 155.489 159.946 155.633 159.984 155.766C160.023 155.903 160.062 156.043 160.112 156.176C160.295 156.718 160.524 157.256 160.799 157.751C161.35 158.75 162.072 159.631 162.91 160.267C163.376 160.614 163.876 160.891 164.408 161.066L164.578 161.125C165.847 161.546 166.538 162.923 166.115 164.198C165.917 164.798 165.502 165.274 164.994 165.559C164.45 165.863 163.938 166.21 163.476 166.616C162.518 167.462 161.719 168.492 160.966 169.689C160.59 170.286 160.221 170.925 159.849 171.592L159.278 172.614C159.104 172.934 158.956 173.207 158.813 173.515C158.242 174.712 157.827 175.96 157.653 177.185C157.47 178.409 157.517 179.591 157.796 180.664L152.104 181.904C151.658 179.884 151.181 177.93 150.56 176.101C149.819 173.905 148.876 171.896 147.603 170.219C146.335 168.535 144.767 167.185 143.04 166.44C141.477 165.762 140.751 163.937 141.426 162.365C141.725 161.667 142.249 161.136 142.878 160.82L143.025 160.746L143.727 160.391L144.08 160.22L144.414 160.013L145.081 159.6L145.71 159.124L146.028 158.89L146.323 158.621L146.913 158.09L147.456 157.502C147.545 157.404 147.642 157.31 147.728 157.209L147.976 156.889C148.143 156.675 148.313 156.468 148.476 156.25L148.934 155.567C149.093 155.345 149.229 155.103 149.365 154.861C149.501 154.619 149.644 154.382 149.772 154.136C150.005 153.625 150.277 153.137 150.471 152.599C150.575 152.334 150.684 152.077 150.785 151.808L151.053 150.992C151.448 149.694 151.976 148.387 152.352 147.03C152.546 146.39 152.806 145.837 153.179 145.427C153.326 145.505 153.621 145.685 154.001 145.653C154.382 145.63 154.731 145.361 154.906 145.022C155.402 143.996 154.983 143.153 155.553 143.052C155.697 143.036 155.926 143.083 156.232 143.306C156.535 143.52 156.896 143.953 157.105 144.495C157.214 144.764 157.288 145.045 157.338 145.318C157.358 145.443 157.377 145.568 157.396 145.696C157.412 145.755 157.428 145.813 157.443 145.876C157.501 146.121 157.54 146.387 157.559 146.675C157.625 147.404 157.548 148.165 157.462 148.925C157.404 149.304 157.323 149.682 157.241 150.056C157.199 150.244 157.156 150.431 157.109 150.614C157.051 150.797 156.997 150.981 156.943 151.16C156.015 154.183 154.661 157.092 152.764 159.709C151.813 161.015 150.696 162.213 149.47 163.309C148.224 164.393 146.831 165.302 145.357 166.093L145.341 161.074C145.978 161.324 146.614 161.589 147.215 161.909C149.086 162.868 150.87 164.221 151.957 165.883C155.123 170.703 156.648 175.898 157.509 180.82L157.536 180.968C157.784 182.387 156.842 183.745 155.425 183.994C154.029 184.24 152.698 183.316 152.422 181.927C152.302 181.323 152.217 180.71 152.19 180.106C152.065 177.622 152.566 175.247 153.412 173.109C153.835 172.041 154.355 171.007 154.94 170.052C155.456 169.209 155.988 168.328 156.589 167.443C157.338 166.339 158.196 165.216 159.22 164.202C160.233 163.18 161.42 162.306 162.658 161.604L163.166 165.493C161.754 165.048 160.473 164.307 159.414 163.383C158.347 162.462 157.486 161.378 156.799 160.228C156.45 159.65 156.159 159.05 155.891 158.438C155.639 157.829 155.41 157.174 155.247 156.581C154.902 155.376 154.649 154.198 154.428 153.013C154.161 151.558 154.044 150.127 154.133 148.734C154.223 147.346 154.506 145.989 155.084 144.788C155.216 144.526 155.391 144.335 155.585 144.226L155.577 144.288C155.616 144.335 155.616 144.448 155.557 144.55C155.499 144.655 155.398 144.733 155.325 144.784C155.169 144.885 155.088 144.944 155.076 145.041C155.076 145.127 155.115 145.279 155.441 145.341C155.6 145.369 155.868 145.341 156.135 145.166C156.403 144.998 156.593 144.706 156.667 144.491L156.69 144.273C156.923 144.421 157.098 144.663 157.191 145.018C157.633 146.66 158.099 148.379 158.56 150.092C158.941 151.507 159.154 153.005 159.542 154.385C159.569 154.382 159.596 154.378 159.627 154.374H159.635Z" fill="black"/>
</svg>
