<svg width="887" height="281" viewBox="0 0 887 281" fill="none" xmlns="http://www.w3.org/2000/svg">
<path fill-rule="evenodd" clip-rule="evenodd" d="M513.961 0.424817C513.644 0.741861 492.719 1.37595 467.514 1.85151C442.151 2.32708 420.909 2.80264 419.958 2.80264C419.165 2.80264 416.946 2.64412 415.202 2.4856C413.458 2.16855 399.984 2.64412 385.083 3.2782C370.341 4.07081 348.94 4.86342 337.527 5.33899C326.272 5.65603 312.005 6.29012 305.822 6.76568C299.799 7.24125 289.019 8.03385 282.044 8.50942C275.069 8.82646 265.082 9.61907 259.851 10.0946C254.62 10.5702 248.913 10.7287 247.169 10.7287C240.511 10.4117 237.5 10.4117 235.28 10.5702C233.219 10.7287 233.219 10.8872 235.28 12.3139C236.707 13.2651 236.865 13.8992 235.756 13.8992C234.805 13.8992 233.378 13.2651 232.902 12.3139C232.427 11.5213 230.366 10.8872 228.305 11.0458C225.452 11.3628 224.818 12.1554 225.293 14.6918C225.716 16.6997 225.188 16.8054 223.708 15.0088C221.172 11.8384 216.099 11.5213 213.404 14.2162C212.136 15.4844 211.026 15.4844 209.283 14.0577C207.856 12.7895 206.746 12.7895 206.112 13.7406C205.478 14.6918 203.893 14.8503 202.466 14.3747C200.723 13.7406 200.247 13.8992 201.04 15.1673C201.674 16.277 201.357 17.0696 200.564 17.0696C199.613 17.0696 198.82 16.4355 198.82 15.6429C198.82 13.7406 192.321 13.8991 189.785 15.8014C188.675 16.7525 186.773 16.7525 185.029 15.9599C183.444 15.1673 181.541 14.5332 180.59 14.6918C170.92 15.9599 155.861 17.5451 152.532 17.5451C149.996 17.5451 148.093 18.0207 148.093 18.4963C148.093 19.4474 137.472 20.3985 128.754 20.24C125.266 20.24 124.315 20.8741 124.315 23.7275V27.215L121.145 23.7275C118.608 21.0326 116.706 20.3985 113.536 21.1911C111.158 21.8252 108.621 22.7764 107.829 23.4104C107.195 24.2031 104.024 24.3616 101.171 23.886C97.6835 23.2519 95.7812 23.569 95.7812 24.8371C95.7812 25.7883 94.6716 26.5809 93.4034 26.5809C92.1352 26.5809 91.0256 25.7883 91.0256 24.8371C91.0256 23.569 90.233 23.569 88.6478 24.9957C87.3796 26.1053 86.7455 27.6905 87.3796 28.6417C88.1722 29.9098 88.6478 29.9098 88.9648 28.6417C89.4404 27.3735 90.8671 27.215 93.4034 28.1661C95.6227 28.9587 97.6835 28.9587 98.159 28.3246C99.2687 26.4224 113.219 26.5809 113.219 28.4831C113.219 29.1172 114.328 29.7513 115.596 29.7513C116.865 29.7513 117.974 28.9587 117.974 28.0076C117.974 27.0564 119.401 26.7394 121.145 27.3735C123.047 28.0076 126.851 28.6417 129.863 28.9587C134.143 29.2757 135.412 28.8002 135.412 26.8979C135.412 24.8371 135.729 24.6786 136.68 26.2638C138.107 28.4831 143.338 27.215 145.24 24.3616C146.033 23.2519 146.508 23.2519 146.508 24.6786C146.508 26.1053 150.313 26.5809 161.568 26.4224C169.969 26.2638 176.152 25.6297 175.676 24.8371C174.725 23.2519 179.639 23.7275 182.651 25.4712C183.761 26.2638 184.553 25.9468 184.553 24.8371C184.553 23.7275 186.614 23.2519 190.102 23.7275C193.113 24.0445 195.65 23.886 195.65 23.2519C195.65 22.6178 196.759 21.6667 198.186 21.1911C199.454 20.7156 200.247 20.8741 199.771 21.6667C199.296 22.4593 199.771 23.886 201.04 24.8371C202.783 26.2638 203.417 25.9468 204.21 23.0934C204.844 20.3985 205.478 19.923 206.429 21.5082C207.539 22.9349 208.807 23.0934 211.978 21.9838C214.989 20.8741 216.258 20.8741 216.258 21.9838C216.258 22.9349 217.684 23.2519 219.428 22.6178C221.013 22.1423 224.976 22.3008 228.147 23.2519C232.427 24.3616 234.171 24.2031 235.914 22.6178C237.5 20.8741 238.451 20.8741 240.036 22.3008C241.621 23.886 241.938 23.569 241.146 21.3497C239.877 18.0207 242.097 17.8622 245.426 21.0326C248.438 24.0445 250.974 24.0445 254.62 20.7156C256.205 19.2889 257.473 18.8133 257.473 19.7644C257.473 21.8252 283.312 21.6667 284.739 19.4474C285.532 18.4963 286.007 18.4963 286.007 19.7644C286.007 20.8741 286.8 21.8252 287.751 21.8252C288.543 21.8252 288.861 21.1911 288.385 20.24C287.909 19.2889 288.544 19.1304 289.812 19.6059C291.238 20.0815 292.348 21.1911 292.348 21.9838C292.348 22.6178 293.458 22.9349 294.884 22.3008C296.311 21.8252 298.055 22.3008 299.006 23.569C300.116 25.1542 300.274 24.8371 299.481 22.1423C298.53 18.6548 300.75 17.2281 302.652 20.24C303.286 21.1911 304.237 21.5082 305.03 21.0326C306.932 19.7645 337.685 19.6059 339.587 20.8741C340.539 21.3497 342.441 21.3497 343.868 20.7156C345.928 20.0815 346.404 20.3985 345.928 21.9838C345.453 23.4104 343.392 24.0445 339.904 23.7275C337.051 23.4104 334.198 23.886 333.722 24.6786C333.247 25.4712 330.869 26.5809 328.491 27.215C325.162 28.0076 324.052 27.6905 324.052 25.7883C324.052 24.2031 322.626 23.4104 319.772 23.569L315.334 23.7275L319.297 24.9957C322.943 26.1053 322.943 26.2638 319.772 26.4224C317.87 26.5809 315.809 27.3735 315.334 28.1661C314.7 29.1172 313.273 29.2757 311.688 28.3246C310.261 27.6905 307.883 27.3735 306.615 27.849C304.554 28.6417 304.554 28.3246 306.456 26.1053C308.2 23.7275 308.2 23.4104 306.139 23.4104C304.713 23.4104 303.286 24.6786 302.81 26.2638C302.018 28.4831 300.591 28.9587 296.47 28.4831C293.616 28.1661 290.604 28.6417 290.129 29.5928C289.336 30.7024 287.909 30.7024 285.056 29.4343C282.52 28.3246 280.617 28.1661 279.983 29.1172C279.349 29.9098 271.106 30.5439 261.436 30.5439C251.766 30.5439 241.463 31.178 238.451 32.1291C232.268 34.0314 225.135 31.9706 226.562 28.6417C226.879 27.532 226.562 26.5809 225.769 26.5809C224.818 26.5809 224.184 27.6905 224.184 28.9587C224.184 30.5439 222.599 31.3365 219.111 31.178C216.258 31.178 180.907 31.495 140.801 31.8121L67.5644 32.4462L61.5406 37.0433C58.3701 39.5796 55.1997 41.6404 54.7241 41.6404C54.2486 41.6404 53.9315 42.116 54.2486 42.7501C54.4071 43.5427 53.9315 44.0182 52.9804 44.0182C52.1878 44.0182 51.3952 44.8109 51.3952 45.762C51.3952 46.5546 52.0293 47.0302 52.8219 46.5546C53.6145 45.9205 53.9315 47.0302 53.456 48.6154C52.9804 50.2006 53.456 53.054 54.4071 54.7977C55.6753 57.1755 55.6753 58.1267 54.2486 58.6022C52.8219 59.0778 52.9804 60.0289 54.8827 61.9312C58.0531 65.1016 59.9554 65.4187 58.3701 62.5653C57.736 61.6141 57.8946 61.2971 58.6872 61.9312C62.3332 65.4187 57.2605 77.3078 52.0293 77.3078C49.1759 77.3078 47.5907 83.3316 49.6515 85.868C50.6026 86.9776 50.9196 88.4043 50.2855 89.0384C49.6515 89.5139 49.0174 91.4162 48.7003 93.1599C48.2248 96.8059 53.773 100.61 55.5167 97.7571C56.1508 96.4889 56.9434 96.6474 57.8946 98.0741C59.9554 101.245 59.6383 102.671 56.9434 102.671C55.8338 102.671 54.0901 103.622 53.456 104.891C52.8219 106.159 50.7611 107.268 49.0174 107.744C46.481 108.219 45.8469 109.488 45.6884 115.036C45.6884 118.682 46.3225 121.694 47.2736 121.694C48.0662 121.694 48.2248 122.169 47.7492 122.645C46.164 124.23 49.6514 129.62 52.1878 129.62C56.9434 129.62 53.9315 133.741 49.1759 134.059C48.3833 134.059 47.2736 134.851 46.6395 135.802C45.3714 138.18 48.5418 154.349 50.9196 156.727C52.0293 157.837 59.4798 158.629 69.3081 158.946C78.5024 159.105 86.7455 159.898 87.6966 160.373C88.6478 161.007 89.4404 160.849 89.4404 159.898C89.4404 158.946 91.3426 158.629 94.0375 159.105C96.5738 159.739 99.1102 159.263 99.5857 158.312C100.22 157.361 99.5857 156.569 98.159 156.569C96.7324 156.569 96.0983 155.776 96.5738 154.983C98.4761 151.971 101.805 153.398 103.866 157.995C105.451 161.641 106.402 162.275 107.987 161.007C109.414 159.898 110.048 159.898 110.048 161.007C110.048 161.958 113.536 162.434 119.242 162.275C124.157 161.958 129.546 162.275 131.132 162.751C133.985 163.861 133.985 164.019 131.449 166.08C130.022 167.348 127.169 169.092 125.266 170.043C122.73 171.311 121.937 173.213 121.779 178.445C121.62 182.091 122.096 185.578 122.73 185.895C123.364 186.371 123.523 188.431 123.047 190.809L122.254 194.931L130.497 193.98C138.107 193.029 138.741 193.187 137.789 196.04C136.521 200.321 142.387 201.43 145.874 197.626C147.459 195.882 147.776 194.614 146.825 194.614C145.716 194.614 144.923 193.98 144.923 193.187C144.923 192.394 146.191 191.919 147.776 192.236C149.203 192.553 151.264 192.87 152.373 192.87C153.325 193.029 155.385 194.138 156.654 195.565C158.08 196.833 159.19 197.309 159.19 196.357C159.19 194.455 162.677 194.772 164.104 196.833C164.738 197.467 167.116 196.833 169.652 195.248C172.03 193.504 173.615 193.187 172.981 194.138C172.03 195.565 172.664 196.199 174.566 196.357C176.152 196.357 182.493 196.516 188.516 196.833C200.723 197.309 205.161 198.577 205.161 201.906C205.161 204.918 206.746 204.759 209.283 201.272C211.026 199.052 211.343 199.052 211.343 200.955C211.343 204.918 207.856 208.088 203.259 208.405C197.711 208.881 198.503 208.722 167.909 211.417C133.509 214.429 85.3188 220.294 79.9291 222.197C78.6609 222.672 73.5882 223.306 68.8326 223.782C57.736 224.891 31.58 230.281 21.2761 233.61C15.8864 235.354 13.5085 236.939 13.9841 238.366C14.4597 239.634 13.9841 240.109 12.7159 239.634C11.4477 239.158 10.0211 239.634 9.38697 240.426C8.9114 241.378 7.80175 241.853 7.00914 241.378C4.78984 239.951 -1.55102 251.682 0.351235 253.584C1.30237 254.535 1.61941 257.388 1.14384 259.766C0.668279 262.461 0.985322 264.363 1.93645 264.363C2.72906 264.363 3.83871 265.631 4.15575 267.217C4.63132 268.802 5.89949 270.229 7.16766 270.387C8.43584 270.546 14.4597 271.655 20.4835 272.765C26.6658 273.875 31.897 274.35 32.0556 273.557C32.3726 272.765 34.4334 273.24 36.3356 274.509C38.7135 276.094 40.4572 276.411 41.0913 275.46C41.5668 274.509 42.835 273.875 43.6276 273.875C44.5788 273.875 44.8958 274.35 44.5788 274.984C44.1032 275.777 47.4321 276.411 51.7122 276.728C57.8946 277.045 60.1139 276.569 61.6991 274.35C62.8087 272.765 64.394 271.972 65.028 272.765C65.6621 273.399 65.3451 273.875 64.394 273.875C63.2843 273.875 62.4917 274.826 62.4917 275.935C62.4917 277.521 66.9303 278.155 81.1973 278.313C91.3426 278.472 101.488 278.947 103.549 279.423C108.78 280.374 114.962 278.63 113.853 276.411C113.377 275.46 114.011 275.935 115.279 277.521C117.34 280.057 119.718 280.374 130.973 280.057C138.107 279.898 145.398 279.106 146.825 278.313C148.41 277.521 149.837 277.679 150.471 278.63C151.422 280.057 164.421 279.423 167.274 277.679C168.067 277.203 168.701 277.362 168.701 278.155C168.701 278.789 175.042 279.581 182.81 279.581C195.967 279.898 197.077 279.581 198.028 276.411C198.979 273.557 199.296 273.399 199.93 275.935C200.247 277.521 201.832 278.472 203.259 278.313C206.905 277.679 208.649 274.984 206.271 273.557C202.149 271.021 207.222 270.387 211.661 272.923C214.197 274.509 217.367 275.301 218.635 274.826C220.221 274.35 220.538 274.826 220.062 276.728C219.587 278.155 220.696 276.728 222.44 273.557C224.818 269.277 226.562 267.851 228.464 268.643C230.049 269.277 230.683 268.96 229.891 267.851C228.781 266.107 231.634 263.412 233.219 264.839C234.488 266.266 229.891 271.497 227.354 271.497C226.086 271.497 224.818 273.082 224.501 274.984C224.184 277.045 224.818 278.63 225.769 278.63C226.879 278.63 227.354 277.521 226.72 276.252C226.086 274.35 226.403 274.192 228.781 275.46C231 276.569 232.11 276.411 232.585 274.984C233.061 273.557 233.854 273.557 235.439 274.826C238.451 277.045 248.596 277.679 247.169 275.46C246.694 274.667 247.011 273.875 248.12 273.875C249.389 273.875 249.389 273.24 247.803 271.338C245.901 269.119 245.584 269.277 244.316 272.606C243.365 274.826 242.572 275.46 242.097 274.192C241.621 272.765 240.67 272.606 239.402 273.716C237.975 274.984 237.341 274.667 237.341 272.606C237.341 269.436 243.365 263.729 244.633 265.631C245.109 266.424 246.852 267.375 248.438 268.009C249.864 268.485 251.132 270.07 251.132 271.497C251.132 272.765 251.925 273.875 252.718 273.875C253.669 273.875 254.303 272.448 254.303 270.704C254.303 268.643 255.095 267.851 256.681 268.485C258.266 269.119 258.583 270.07 257.632 271.338C256.681 272.606 257.315 273.082 260.01 273.24C262.07 273.399 263.814 272.765 263.814 271.972C263.814 271.021 264.924 271.18 266.192 272.289C268.094 273.875 268.253 274.667 266.826 275.618C265.716 276.252 267.777 276.569 271.423 276.569C277.13 276.252 277.923 275.777 277.13 273.24C276.337 270.863 276.654 270.387 278.715 271.18C280.142 271.814 281.251 271.497 281.251 270.704C281.251 269.753 280.617 269.119 279.666 269.119C278.874 269.119 278.081 268.009 278.081 266.741C278.081 263.095 279.983 263.888 285.215 269.911C289.495 274.826 293.933 277.679 291.714 274.033C290.446 271.972 295.36 270.546 298.372 271.972C302.018 273.716 307.566 273.082 310.578 270.704C314.858 267.217 311.371 265.948 305.822 269.119C301.384 271.655 300.274 271.814 300.274 269.911C300.274 268.009 299.481 268.009 295.994 269.277C291.08 271.021 287.592 270.229 287.592 267.058C287.592 265.473 288.861 264.997 291.555 265.631C293.775 265.948 295.518 265.631 295.518 264.68C295.518 263.729 297.579 263.095 300.274 263.254C302.81 263.412 305.03 263.888 305.03 264.363C305.03 265.473 313.273 264.997 316.602 263.571C318.187 262.937 320.406 263.254 321.833 264.522C324.052 266.266 324.686 266.266 326.272 263.888C327.857 261.985 328.808 261.827 330.076 263.095C331.503 264.522 332.93 264.522 335.783 263.095C338.319 261.985 340.222 261.827 340.697 262.778C341.331 263.729 341.014 264.363 340.222 264.363C338.478 264.363 338.795 271.655 340.539 273.399C341.331 274.033 341.49 273.875 341.014 272.923C340.38 271.814 341.331 270.704 343.233 270.229C345.611 269.594 346.245 269.911 345.611 271.497C344.977 273.24 345.611 273.399 348.306 272.448C350.208 271.814 352.745 271.497 354.013 271.972C355.915 272.606 355.915 272.448 354.013 270.229C352.745 268.96 351.635 268.485 351.318 269.277C351.001 270.07 350.05 270.704 349.257 270.704C348.306 270.704 348.148 269.911 348.782 268.802C349.416 267.851 349.257 267.534 348.148 268.168C345.453 269.753 344.502 266.741 346.879 263.412C348.94 260.717 349.574 260.717 353.22 262.778C355.915 264.046 356.866 265.473 355.915 266.424C354.964 267.375 355.123 268.802 356.549 270.07C359.244 272.765 366.853 270.387 366.853 266.9C366.853 265.79 367.963 264.205 369.231 263.729C370.658 263.254 371.609 263.571 371.45 264.839C370.975 268.643 371.609 270.704 373.353 270.704C374.145 270.704 374.462 269.753 373.828 268.643C373.194 267.692 373.987 267.851 375.73 269.277C377.316 270.546 379.693 271.497 380.803 271.338C381.754 271.18 383.815 271.021 385.083 270.863C386.351 270.863 387.461 269.594 387.461 268.326C387.461 265.156 389.997 265.314 391.266 268.485C392.058 270.704 392.375 270.704 394.753 268.485C397.448 265.631 400.935 264.997 399.35 267.534C398.875 268.326 399.826 269.119 401.569 269.119C403.313 269.119 405.057 268.485 405.532 267.851C406.325 266.424 412.983 266.424 415.361 267.851C416.153 268.326 420.909 268.802 425.982 268.96C432.481 269.119 435.334 268.485 435.969 266.9C436.444 265.631 438.029 264.997 439.456 265.314C440.883 265.631 444.37 265.314 446.907 264.522C449.971 263.571 450.236 262.989 447.699 262.778C445.48 262.62 442.151 262.461 440.249 262.302C437.712 262.302 436.603 261.351 436.603 259.449C436.603 257.705 437.712 256.437 439.139 256.437C440.407 256.437 441.041 257.071 440.566 258.022C439.456 259.766 443.419 260.242 445.004 258.498C445.955 257.547 458.954 257.23 462.759 258.022C465.771 258.656 468.148 258.022 470.526 255.486C472.904 253.267 473.221 253.267 474.014 255.486C475.123 258.181 478.769 258.974 479.72 256.596C480.038 255.803 481.464 255.962 483.049 257.23C485.586 258.974 485.586 259.449 483.367 261.668C482.098 263.095 480.989 264.68 480.989 265.473C481.147 266.107 482.732 264.68 484.793 262.144C487.964 258.339 488.915 258.022 491.768 259.449C494.463 260.876 494.939 260.876 494.463 259.132C493.829 257.864 494.939 257.071 497.158 256.913C499.219 256.754 500.011 257.071 499.219 257.705C495.89 260.083 497.316 261.985 502.548 262.144C506.035 262.144 508.096 261.351 508.73 259.766C509.206 258.022 511.742 257.071 516.18 256.754C519.985 256.596 523.314 255.645 523.472 254.852C524.107 252.95 528.545 252.791 528.545 254.535C528.545 256.437 520.778 259.925 519.034 258.815C518.241 258.339 516.815 259.449 515.863 261.193C514.437 264.046 514.595 264.363 518.241 264.363C520.619 264.363 522.046 263.729 521.412 262.937C520.936 261.985 521.887 260.559 523.631 259.608C525.692 258.498 527.118 258.498 527.753 259.608C528.228 260.4 529.496 261.193 530.447 261.193C531.557 261.193 531.399 260.4 530.289 258.974C528.228 256.437 530.606 253.901 533.301 255.645C534.252 256.279 534.727 255.803 534.569 254.693C534.093 252.633 545.665 251.523 546.934 253.584C547.409 254.376 549.311 254.059 551.214 252.95C556.921 249.779 560.408 250.096 559.298 253.584C558.506 256.279 558.823 256.437 561.676 255.01C563.578 253.901 565.005 253.584 565.005 254.218C565.005 254.693 565.956 254.535 567.066 253.584C568.334 252.474 569.602 252.633 571.029 254.218C572.931 256.279 572.297 257.071 569.444 256.596C568.651 256.596 568.176 257.547 568.176 258.815C568.176 261.668 572.297 261.985 573.407 259.132C573.882 258.022 574.358 258.339 574.358 259.925C574.516 262.937 577.37 263.412 583.552 261.827L587.198 260.876L584.028 256.437C579.906 250.572 580.065 249.621 585.137 250.889C588.942 251.84 589.1 251.682 587.04 249.145C584.979 246.609 585.137 246.609 588.783 248.67C591.637 250.255 599.246 250.889 616.525 250.889C639.827 250.889 640.303 250.889 642.047 254.693L643.949 258.339L645.059 254.852C645.693 252.95 646.485 251.84 646.961 252.316C647.595 252.791 648.863 251.999 650.131 250.413C651.399 248.987 651.875 248.67 651.241 249.938C650.29 251.682 650.765 251.999 653.143 250.889C654.728 250.255 657.74 249.779 659.643 249.779C661.545 249.938 663.606 249.304 664.081 248.511C665.666 245.975 668.044 246.609 667.093 249.304C666.459 250.572 666.935 251.682 667.886 251.682C668.837 251.682 669.629 251.047 669.629 250.255C669.629 249.462 671.373 248.987 673.592 249.304C675.812 249.462 677.555 248.987 677.555 248.036C677.555 247.243 678.665 247.56 680.25 248.67C681.994 250.255 682.945 250.413 683.421 249.145C683.738 248.036 685.323 247.56 686.908 248.036C688.335 248.353 690.554 247.56 691.664 246.292C692.932 244.865 694.517 243.755 695.468 243.755C696.42 243.755 695.785 244.707 694.2 245.975C691.347 248.036 691.347 248.194 694.993 247.718C697.212 247.401 700.383 246.609 701.968 245.975C704.187 245.182 704.663 245.341 703.87 246.609C702.126 249.462 707.992 248.987 712.272 245.816C714.491 244.39 715.601 244.072 714.967 245.024C714.174 246.292 715.601 246.767 719.564 246.609C722.893 246.45 725.905 245.341 726.697 243.914C727.49 242.487 728.282 242.17 728.282 243.121C728.282 244.231 731.294 244.865 735.574 244.707C746.195 244.548 740.489 241.219 728.758 240.744C723.685 240.585 717.027 239.792 714.015 239C711.004 238.207 701.334 237.415 692.615 237.415C683.896 237.256 674.068 236.463 670.898 235.671C666.3 234.561 663.764 234.72 660.118 236.622C656.155 238.683 655.521 238.683 656.314 236.622C657.106 234.878 656.155 234.561 651.875 235.195C645.534 236.146 646.644 236.305 629.206 234.561C621.439 233.927 612.72 233.769 609.867 234.403C607.013 235.037 604.477 235.037 604.001 234.561C602.892 233.452 592.271 233.452 591.161 234.561C590.686 235.037 587.674 234.878 584.345 234.403C581.174 233.769 574.675 233.769 570.078 234.244C565.481 234.878 561.518 234.878 561.042 234.561C560.408 233.927 540.276 233.61 537.264 234.244C536.471 234.403 535.045 234.403 534.093 234.244C532.667 233.927 520.778 234.244 500.804 235.037C492.719 235.354 441.041 236.939 400.935 238.049C388.729 238.366 378.742 238.683 378.742 238.841C378.742 239.475 336.258 240.585 310.102 240.744C295.201 240.902 282.52 241.378 282.044 242.012C281.727 242.646 275.862 242.963 269.204 242.646C260.327 242.17 256.522 242.646 255.73 244.072C254.937 245.182 254.303 245.341 254.303 244.39C254.303 243.438 250.181 242.963 242.889 243.28C236.548 243.438 219.745 243.755 205.478 243.755C185.663 243.755 179.956 244.231 180.907 245.816C181.7 247.243 181.383 247.243 179.639 245.975C178.371 245.024 167.909 244.39 152.849 244.548C139.375 244.707 126.851 244.231 125.108 243.597C122.73 242.646 123.523 242.329 128.278 242.17C133.034 242.17 133.985 241.695 132.241 240.585C130.815 239.634 130.656 239 131.766 239C132.717 239 134.143 239.634 134.619 240.585C135.095 241.378 137.314 242.17 139.533 242.17C142.387 242.17 143.338 241.219 143.496 238.524C143.496 235.195 143.655 235.195 144.923 238.207C145.874 240.268 146.35 240.585 146.35 239C146.508 236.939 146.825 236.939 147.935 238.841C149.203 240.744 150.788 240.902 155.385 239.634C161.409 238.207 164.104 235.037 160.458 233.769C159.348 233.452 159.665 233.293 161.251 233.452C164.421 234.086 164.897 231.708 162.043 230.44C160.934 229.964 162.836 229.806 166.323 229.964C171.396 230.281 172.823 230.915 173.14 233.61C173.457 236.146 174.408 236.78 176.786 236.305C180.273 235.354 180.59 234.086 177.895 231.391C175.518 229.013 176.944 227.586 180.273 228.854C181.7 229.33 182.651 231.232 182.493 233.134C182.334 235.512 182.968 236.463 184.553 235.988C185.822 235.512 188.516 235.195 190.419 235.195C192.638 235.037 194.223 233.769 194.857 231.391C195.333 229.488 196.759 227.903 197.869 227.903C199.137 227.903 201.198 226.794 202.466 225.525C204.527 223.623 204.844 223.94 205.795 228.379L206.905 233.452L208.807 229.489C210.234 226.635 212.136 225.525 215.148 225.525C217.526 225.684 219.428 225.208 219.428 224.574C219.428 223.94 221.013 223.782 222.757 224.257C225.135 224.891 227.037 224.257 228.305 222.355C229.573 220.611 230.525 220.136 230.525 221.087C230.525 222.038 231.634 223.306 232.902 223.782C234.488 224.416 235.28 223.94 234.963 222.355C234.646 221.245 235.28 220.294 236.073 220.453C237.024 220.611 237.5 221.245 237.182 221.879C236.707 223.623 238.134 223.465 241.621 221.562C245.109 219.66 252.718 222.038 252.718 224.891C252.718 226.16 252.084 226.318 250.657 224.891C249.072 223.623 248.438 223.782 248.438 225.367C248.438 226.635 249.864 228.062 251.449 228.379C254.144 229.171 254.937 227.903 254.303 223.306C254.144 221.879 254.937 221.404 256.522 222.038C257.79 222.514 259.376 222.355 260.01 221.404C260.485 220.453 263.339 220.136 266.35 220.453C269.362 220.928 271.899 220.453 272.374 219.343C272.85 218.233 273.96 218.551 275.386 220.294C277.764 223.306 280.459 224.257 278.874 221.562C278.398 220.611 278.715 219.977 279.666 219.977C280.617 219.977 281.251 221.245 280.934 222.672C280.617 224.733 281.886 225.525 286.483 225.842C290.129 226.16 292.189 225.842 291.714 224.891C291.08 224.099 291.397 222.831 292.348 222.355C293.299 221.721 293.775 221.879 293.616 222.672C293.299 223.306 293.933 224.099 294.726 224.416C295.677 224.574 296.311 223.465 296.47 221.721C296.628 220.136 297.104 218.075 297.738 216.965C299.323 214.429 301.859 216.331 300.75 219.185C300.274 220.611 300.908 221.562 302.493 221.562C303.92 221.562 305.03 220.453 305.03 219.026C305.03 217.758 305.822 217.124 306.773 217.758C307.725 218.233 309.151 217.916 309.785 216.807C310.578 215.697 313.114 214.587 315.651 214.27C319.297 213.795 320.248 214.429 320.406 216.965C320.882 222.989 323.894 222.514 326.113 216.173C326.272 215.38 328.491 214.746 330.869 214.746C333.247 214.746 334.673 214.27 334.198 213.478C333.722 212.685 334.198 212.051 335.149 212.051C336.258 212.051 336.576 213.161 336.1 214.587C335.624 216.014 335.149 217.282 335.149 217.599C335.149 217.916 333.405 217.916 331.186 217.441C328.332 216.965 327.54 217.282 328.174 219.026C329.601 222.831 334.673 223.623 340.063 220.928C343.392 219.343 345.928 218.868 347.672 219.977C349.733 220.928 350.842 220.453 352.269 218.233C353.854 215.697 353.696 215.222 351.794 215.222C350.525 215.222 349.416 214.587 349.416 213.795C349.416 211.734 353.854 210.307 354.964 212.21C355.598 213.002 356.549 213.319 357.5 212.844C358.927 211.893 382.071 209.832 388.729 209.99C390.631 210.149 392.217 209.515 392.217 208.881C392.217 206.344 398.716 206.027 403.313 208.405C409.178 211.259 409.178 211.576 403.789 211.734C401.252 211.734 397.606 212.21 395.387 212.527C393.168 212.844 390.631 212.527 389.68 211.734C388.571 210.941 387.461 211.259 386.985 212.685C386.351 214.27 387.778 215.063 391.9 215.539C395.07 216.014 397.923 215.697 398.24 215.063C398.557 214.429 399.667 214.112 400.935 214.587C402.045 215.063 404.581 214.587 406.484 213.636C408.861 212.368 410.447 212.368 411.873 213.636C413.458 214.905 414.251 214.746 415.044 212.844C415.519 211.576 415.202 210.466 414.41 210.466C413.458 210.466 412.824 209.832 412.824 209.039C412.824 208.247 415.678 207.295 419.324 206.978C425.031 206.503 425.982 206.82 427.25 210.149C428.042 212.21 429.469 213.319 430.262 212.844C431.53 212.051 431.371 211.1 430.103 209.515C427.725 206.661 429.311 204.918 434.383 204.918C438.346 204.759 439.456 206.344 436.603 208.088C435.81 208.564 435.017 209.99 435.176 210.941C435.176 212.368 435.493 212.368 435.969 210.941C436.444 209.832 437.871 209.515 439.297 209.99C440.883 210.624 441.517 210.307 440.724 209.198C439.297 206.978 442.468 205.235 449.284 204.601C452.296 204.442 457.845 203.808 461.491 203.332C465.137 203.015 468.624 203.332 469.1 204.125C469.575 204.918 471.002 205.235 472.27 204.601C474.014 203.967 474.331 204.442 473.697 206.344C472.429 209.673 475.599 209.673 477.501 206.344C478.769 203.967 479.086 203.967 479.879 206.344C481.147 209.515 484.159 209.673 484.159 206.503C484.159 205.235 483.525 204.125 482.574 204.125C481.781 204.125 480.989 203.332 480.989 202.381C480.989 201.589 481.781 201.272 482.574 201.747C483.525 202.223 484.159 201.747 484.159 200.638C484.159 198.894 484.476 198.894 485.586 200.638C486.22 201.906 488.281 202.54 489.866 202.223C492.085 201.906 492.878 202.54 492.561 204.918C492.402 207.771 492.561 207.771 494.305 205.393C495.731 203.491 496.841 203.174 498.902 204.284C500.645 205.393 501.597 205.393 501.597 204.284C501.597 203.491 503.023 203.174 504.767 203.649C507.145 204.284 507.779 203.967 507.145 202.223C506.352 200.321 507.62 199.845 513.327 199.845C521.412 199.845 521.253 199.686 518.875 204.601C517.924 206.714 518.136 206.978 519.509 205.393C520.778 203.808 522.363 203.174 522.997 203.808C523.79 204.442 523.789 203.491 523.155 201.906C522.363 199.528 522.521 199.211 524.265 200.638C525.533 201.747 527.118 201.906 527.753 201.272C528.545 200.638 528.545 201.113 527.911 202.064C526.484 204.601 532.667 204.918 534.093 202.54C534.569 201.589 534.252 200.955 533.142 200.955C531.874 200.955 531.874 200.321 533.459 198.418C535.203 196.199 535.52 196.199 536.788 198.418C537.581 199.845 539.642 200.955 541.227 200.955C542.971 200.955 544.397 201.589 544.397 202.54C544.397 203.332 545.19 204.125 545.983 204.125C547.092 204.125 547.092 203.174 545.983 200.955C545.031 199.211 544.556 197.626 544.714 197.626C545.824 197.15 555.335 196.199 564.213 195.565C570.236 195.248 574.199 195.723 574.833 196.833C576.736 199.686 576.26 200.955 573.724 200.003C572.456 199.369 571.822 198.26 572.456 197.309C573.09 196.357 572.614 196.199 571.188 197.15C568.334 199.052 561.359 199.052 560.091 197.15C559.457 196.357 558.347 197.15 557.396 198.735C555.969 201.589 556.445 201.747 566.273 201.589C575.943 201.43 576.894 201.113 576.577 198.26C576.26 195.565 577.687 194.931 585.93 193.346C591.161 192.394 596.234 191.919 597.026 192.394C597.819 192.87 599.404 192.553 600.672 191.443C602.258 190.175 603.684 190.175 606.062 191.443C607.964 192.394 609.391 192.553 609.391 191.602C609.391 190.809 612.72 189.7 617 189.066C621.122 188.431 625.243 187.322 626.194 186.529C627.304 185.737 629.206 186.371 631.584 188.59C634.438 191.285 635.706 191.602 638.084 190.175C639.669 189.066 642.364 188.273 643.79 188.273C645.534 188.273 644.424 189.541 641.096 191.285C637.291 193.346 634.755 193.821 632.852 192.87C630.95 191.76 628.889 192.077 626.353 193.821C624.292 195.089 622.073 195.723 621.28 195.089C620.646 194.297 620.488 194.614 621.122 195.723C621.597 196.675 620.963 197.784 619.378 198.26C617 198.894 617 199.052 619.854 199.211C621.597 199.211 623.975 198.418 625.085 197.309C626.829 195.723 627.146 195.723 626.194 197.309C624.609 200.162 626.511 199.845 629.523 196.992C631.426 195.089 632.377 194.931 634.121 196.357C635.864 197.784 637.132 197.626 639.352 195.565C641.096 193.98 643.632 193.029 645.376 193.346C646.961 193.663 648.07 193.029 647.912 191.76C647.278 189.066 650.131 189.383 651.241 192.394C651.875 193.98 651.558 194.455 650.29 193.663C649.18 193.029 649.022 193.187 649.656 194.455C650.607 195.882 651.875 195.723 654.728 193.98C659.167 190.968 662.813 190.809 663.764 193.346C664.24 194.455 664.715 193.504 664.715 190.968C664.874 188.273 665.666 186.688 667.252 186.688C668.52 186.688 669.629 186.054 669.629 185.102C669.629 184.31 673.909 183.676 679.616 183.993C686.908 184.31 689.445 184.944 689.445 186.688C689.445 187.956 690.713 189.224 692.139 189.541C694.359 190.017 694.676 189.383 693.883 187.322C693.091 185.261 693.408 184.785 695.468 185.578C697.212 186.212 698.163 185.737 698.163 184.468C698.163 183.042 699.431 182.566 702.126 183.042C705.455 183.834 705.614 184.151 703.712 186.212C702.443 187.48 701.334 188.59 701.334 188.907C701.334 189.066 706.723 189.066 713.381 188.907C721.783 188.748 726.063 188.114 727.648 186.371C729.868 184.151 729.709 183.834 725.905 183.2C723.21 182.566 721.466 183.042 720.832 184.468C719.722 187.639 712.43 187.322 712.43 184.151C712.43 182.883 711.796 182.249 710.845 182.725C710.052 183.2 709.26 182.883 709.26 182.091C709.26 180.347 711.004 179.871 713.698 180.664C714.332 180.981 714.649 181.615 714.332 182.249C713.857 184.151 718.454 183.834 719.564 181.932C721.466 178.762 729.392 180.188 732.245 184.151C734.623 187.322 735.733 187.797 738.269 186.371C739.854 185.578 742.708 185.102 744.293 185.578C746.195 186.054 747.305 185.578 747.305 184.31C747.305 182.566 748.256 182.408 751.744 183.676C755.865 185.102 764.584 184.785 771.876 183.042C773.62 182.566 777.424 182.091 780.277 182.091C783.131 181.932 785.192 181.298 784.716 180.505C784.24 179.871 785.509 179.554 787.411 179.871C792.801 180.822 795.495 178.286 793.435 174.323C791.849 171.311 792.167 170.677 796.447 168.458C799.142 167.031 801.995 166.397 802.629 166.872C803.422 167.348 804.531 166.714 804.848 165.763C805.482 164.178 805.799 164.178 805.799 165.763C805.958 167.031 806.751 167.348 808.019 166.555C808.97 165.921 812.14 165.287 814.677 165.129C817.372 165.129 822.92 164.495 827.041 163.861C833.065 162.909 834.492 162.117 833.858 160.215C833.224 158.629 833.541 158.154 834.809 158.629C835.919 159.105 837.979 159.898 839.406 160.532C840.833 161.007 843.052 160.532 844.162 159.263C845.43 158.154 848.759 157.361 851.612 157.52C855.575 157.837 856.685 157.361 856.051 155.776C855.258 153.715 857.636 153.398 860.807 155.459C861.916 156.093 863.026 155.142 863.501 153.24C864.135 150.862 863.818 150.228 862.233 150.862C860.806 151.337 860.331 150.862 860.807 149.435C861.758 147.057 871.11 140.399 877.768 137.387C880.146 136.278 882.048 134.851 882.048 134.217C882.048 133.424 883.316 133.266 884.902 133.741C887.28 134.534 887.28 134.376 885.06 132.473C883.792 131.364 882.207 129.144 881.573 127.559C880.939 125.974 879.671 125.181 878.878 125.657C877.927 126.291 876.342 126.132 875.232 125.34C873.33 123.755 871.427 123.913 846.381 125.498C839.406 125.815 825.139 126.608 814.677 127.084C804.214 127.559 791.374 128.352 786.143 128.827C780.912 129.303 769.181 129.937 759.987 130.254C738.586 130.888 694.517 132.79 679.141 133.741C672.641 134.059 663.923 134.376 659.643 134.376C655.362 134.376 650.765 135.01 649.18 135.961C647.119 137.07 645.693 137.07 645.059 135.961C644.583 135.168 642.047 134.376 639.51 134.376C636.974 134.376 634.438 135.168 633.962 135.961C633.328 137.07 632.06 137.07 629.999 135.961C626.353 134.059 620.329 133.741 623.183 135.644C624.292 136.278 618.902 136.753 611.293 136.595C603.684 136.436 596.551 136.912 595.6 137.863C594.173 138.973 592.746 138.814 590.844 137.387C588.625 135.485 588.308 135.485 589.576 137.387C590.527 138.973 590.21 139.29 588.625 138.339C586.089 136.595 581.174 136.595 577.211 138.339C575.626 138.973 574.041 139.131 573.565 138.656C572.931 138.18 570.87 138.497 568.651 139.29C566.432 140.082 564.054 140.241 563.103 139.765C560.884 138.339 544.08 137.705 542.02 138.814C540.117 139.924 522.363 139.448 520.461 138.18C519.668 137.705 519.034 138.18 519.034 138.973C519.034 139.924 518.241 140.716 517.29 140.716C516.498 140.716 516.022 140.082 516.656 139.29C517.132 138.339 513.803 138.022 508.413 138.497C503.34 138.973 493.195 139.448 485.744 139.607C477.026 139.765 471.477 140.716 470.051 141.985C468.307 143.728 467.514 143.728 466.722 142.143C465.929 141.192 464.344 140.716 462.759 141.192C461.332 141.826 460.539 141.668 461.173 140.716C461.808 139.765 460.064 139.131 457.369 139.131C454.833 139.131 452.296 138.497 451.821 137.863C451.504 137.229 453.564 136.912 456.576 137.229C459.588 137.546 461.966 137.229 461.966 136.278C461.966 135.327 460.539 135.01 458.796 135.485C454.199 136.753 454.674 131.839 459.588 128.669C462.759 126.608 464.027 126.449 465.929 128.035C467.514 129.303 468.307 129.461 468.307 128.352C468.307 127.401 469.417 126.925 470.685 127.401C471.953 128.035 474.014 127.718 475.123 126.767C476.233 125.815 479.721 125.657 483.367 126.291C488.122 127.084 489.707 128.035 489.549 130.254C489.39 131.681 489.707 132.632 490.183 132.156C490.659 131.681 492.085 132.156 493.353 133.266C495.256 134.693 495.89 134.693 496.365 133.107C497.158 131.047 501.597 130.413 501.597 132.473C501.597 135.01 509.998 134.217 513.803 131.205C516.022 129.461 517.132 128.035 516.18 128.035C515.388 128.035 514.278 126.925 513.803 125.815C513.169 124.072 513.644 123.755 515.388 124.389C517.132 125.023 517.607 124.706 516.815 123.596C516.022 122.328 516.815 121.694 518.875 121.694C520.778 121.694 522.363 122.328 522.363 123.279C522.521 124.072 522.838 125.498 522.997 126.449C523.155 127.242 523.472 128.51 523.631 129.144C523.79 130.254 530.13 123.279 530.13 121.694C530.13 121.06 531.24 120.584 532.508 120.584C533.776 120.584 534.252 121.377 533.776 122.169C533.142 123.121 533.776 123.438 535.362 122.803C536.788 122.328 538.374 122.486 538.849 123.279C539.483 124.23 541.068 124.23 542.971 123.121C544.714 122.328 546.934 121.852 548.043 122.328C549.47 122.803 549.47 123.121 548.043 123.121C546.934 123.279 545.983 123.913 545.983 124.547C545.983 126.767 557.079 125.181 559.615 122.486C561.993 120.267 562.31 120.267 564.213 122.645C565.639 124.864 567.224 125.023 572.297 123.913C575.626 123.279 579.431 122.645 580.54 122.803C582.125 122.962 582.125 122.486 580.699 120.743C579.272 118.999 579.272 118.523 580.699 118.523C581.808 118.523 582.125 117.731 581.65 116.938C581.174 115.987 581.174 115.353 581.967 115.194C582.601 115.194 585.93 114.877 589.259 114.56C592.588 114.243 597.026 113.609 599.404 113.134C602.892 112.183 603.209 112.341 601.148 114.402C599.563 115.829 597.344 116.304 595.124 115.829C592.271 115.036 591.795 115.353 592.746 117.097C593.856 118.84 593.698 118.999 591.795 117.414C590.21 116.146 588.783 115.987 587.198 117.255C585.296 118.523 585.296 118.682 587.515 117.889C589.1 117.414 590.686 117.889 591.32 118.682C591.795 119.633 594.015 119.95 596.075 119.475C598.612 118.84 600.197 119.157 600.831 120.584C601.782 123.279 614.305 123.596 616.049 120.901C616.842 119.95 617.317 120.267 617.317 121.694C617.317 123.755 617.476 123.755 618.902 121.694C620.171 119.792 620.488 119.792 620.488 121.535C620.488 123.279 620.963 123.279 622.866 121.694C624.134 120.743 626.512 120.267 628.255 120.901C631.267 121.852 633.486 119.792 634.279 115.511C634.438 114.402 635.389 112.5 636.34 111.548C637.767 110.28 638.084 111.231 637.608 115.194C637.291 118.682 637.925 120.901 639.352 121.377C640.62 121.694 641.095 121.377 640.62 120.584C640.144 119.792 642.364 119.316 645.534 119.633C650.131 119.95 650.765 119.792 648.229 118.682C645.534 117.414 645.376 117.097 647.912 117.097C650.765 116.938 651.875 113.768 649.022 113.768C648.229 113.768 647.436 113.134 647.436 112.5C647.436 111.707 648.546 111.073 649.814 111.073C651.082 111.073 652.192 112.024 652.192 113.292C652.192 114.402 652.985 115.353 653.936 115.353C654.728 115.353 655.204 115.987 654.57 116.78C653.46 118.84 663.764 118.206 665.191 116.304C665.825 115.353 667.727 115.353 670.105 116.463C672.324 117.572 674.544 117.889 675.178 117.255C675.812 116.621 680.25 115.987 685.164 115.987C690.237 115.829 697.054 115.353 700.541 114.877C704.029 114.402 711.479 113.609 717.186 113.134C722.893 112.5 731.453 111.231 736.208 110.28C740.964 109.329 745.878 108.537 746.988 108.537C748.098 108.537 748.732 107.585 748.256 106.317C747.781 105.208 748.098 104.256 748.89 104.256C749.841 104.256 750.475 104.891 750.475 105.683C750.475 106.634 751.902 107.11 753.646 106.951C755.39 106.793 756.816 106.317 756.816 105.683C756.816 105.049 759.036 104.891 761.73 105.366C765.376 105.842 766.328 105.525 765.535 104.098C764.742 102.83 764.901 102.513 766.01 103.305C768.071 104.574 774.254 101.72 774.254 99.5008C774.254 98.5497 772.985 97.7571 771.559 97.7571C769.974 97.5985 771.242 96.9645 774.254 96.3304C777.266 95.5378 781.387 94.5866 783.448 93.9525C786.777 92.8429 787.886 94.7452 787.094 99.8178C786.777 101.72 789.155 101.245 792.801 98.7082C795.178 97.123 796.447 96.9645 796.764 98.0741C797.081 99.1838 798.824 99.5008 800.568 98.8667C802.787 98.2326 803.58 96.4889 803.58 92.8429C803.58 88.5628 804.69 87.2946 812.299 82.6975C817.055 79.8441 821.652 77.1493 822.286 76.9907C825.298 75.7226 821.018 70.9669 814.994 68.7476C809.763 66.8454 801.519 66.3698 776.314 66.6868C758.56 66.8454 744.135 66.5283 744.135 65.8942C744.135 64.9431 747.146 62.5653 748.89 62.0897C749.366 62.0897 750.792 61.6141 752.061 60.9801C753.329 60.5045 755.548 59.7119 756.816 59.3948C758.719 58.6022 758.719 58.4437 756.658 58.4437C755.231 58.2852 753.646 57.017 753.17 55.2733C752.061 50.8347 743.976 50.0421 710.845 51.1517C681.994 52.2614 674.702 51.6273 679.299 48.6154C680.726 47.6642 680.884 46.7131 679.933 45.9205C678.348 44.9694 678.19 43.8597 678.982 39.5796C678.982 38.9456 684.53 35.141 691.03 31.3365C698.797 26.7394 702.76 23.569 702.126 22.1423C701.651 20.8741 701.334 19.4474 701.334 18.9718C701.334 16.1185 691.03 13.5821 681.043 14.0577C670.581 14.5332 663.289 13.1065 661.545 10.5702C659.96 7.87533 643.315 5.97307 617.793 5.65603C603.526 5.33898 591.954 4.86342 591.954 4.38786C591.954 3.91229 583.552 3.43673 573.248 3.11968C541.544 2.32708 518.4 1.21742 516.339 0.583338C515.388 0.107773 514.278 0.107774 513.961 0.424817ZM446.431 17.0696C449.76 17.0696 452.455 17.7037 452.455 18.6548C452.455 19.4474 451.979 20.24 451.345 20.3985C440.566 21.6667 386.827 22.6178 377.633 21.5082C376.206 21.3497 375.255 20.7156 375.73 19.923C376.206 19.1304 377.316 18.9718 378.108 19.4474C378.901 19.923 382.071 19.7645 385.083 18.8133C389.205 17.7037 390.631 17.8622 390.631 19.1304C390.631 20.24 391.424 19.7644 392.375 18.1792C393.485 16.277 394.753 15.8014 395.863 16.7525C396.972 17.5451 400.618 18.1792 404.106 17.8622C407.593 17.7037 411.239 18.1792 412.032 18.8133C413.934 20.24 421.702 19.7644 423.445 18.1792C425.189 16.4355 427.408 16.9111 426.14 18.8133C424.714 21.1911 431.847 18.9718 435.017 16.1185C436.444 14.6918 437.712 14.3747 438.822 15.4844C439.773 16.4355 443.102 17.0696 446.431 17.0696ZM419.165 16.1185C419.165 16.594 418.531 17.3866 417.58 17.8622C416.787 18.3378 415.995 18.0207 415.995 17.2281C415.995 16.277 416.787 15.4844 417.58 15.4844C418.531 15.4844 419.165 15.8014 419.165 16.1185ZM355.915 22.6178C356.708 21.9838 357.342 22.3008 357.342 23.2519C357.342 24.8371 348.148 27.3735 346.721 26.1053C346.245 25.6297 347.672 23.569 349.574 21.3497C353.062 17.8622 353.379 17.8622 353.854 20.5571C354.171 22.1423 355.123 23.0934 355.915 22.6178ZM368.121 23.7275C367.012 26.8979 363.683 27.0564 363.524 23.886C363.524 22.3008 363.049 21.8252 362.573 22.9349C362.256 24.0445 361.305 24.9957 360.512 24.9957C358.769 24.9957 357.183 20.24 358.293 18.4963C359.403 16.594 368.755 21.5082 368.121 23.7275ZM461.966 18.4963C461.966 20.7156 459.113 22.1423 457.21 21.0326C456.259 20.3985 455.942 19.2889 456.418 18.4963C457.686 16.594 461.966 16.594 461.966 18.4963ZM648.07 51.1517C647.436 52.4199 646.802 53.5295 646.485 53.5295C646.168 53.5295 645.851 52.4199 645.851 51.1517C645.851 49.8835 646.485 48.7739 647.436 48.7739C648.229 48.7739 648.546 49.8835 648.07 51.1517ZM65.6621 96.3304C65.6621 97.9156 65.028 99.8178 64.0769 100.293C63.1258 100.927 62.4917 99.1838 62.4917 96.3304C62.4917 93.477 63.1258 91.7332 64.0769 92.3673C65.028 92.8429 65.6621 94.7452 65.6621 96.3304ZM156.019 96.1719C156.019 96.9645 154.91 97.9156 153.8 98.3912C152.215 99.0252 151.739 98.5497 152.373 96.9645C153.325 94.5866 156.019 93.9525 156.019 96.1719ZM116.389 97.7571C116.389 100.293 112.426 100.769 110.365 98.5497C108.621 96.6474 109.097 96.3304 112.426 96.3304C114.645 96.3304 116.389 96.9645 116.389 97.7571ZM133.034 97.9156C132.558 98.7082 131.29 99.5008 130.497 99.5008C129.546 99.5008 129.388 98.7082 129.863 97.9156C130.339 96.9645 131.607 96.3304 132.4 96.3304C133.351 96.3304 133.509 96.9645 133.034 97.9156ZM745.72 101.086C745.72 101.879 744.927 102.671 743.976 102.671C743.183 102.671 742.866 101.879 743.342 101.086C743.818 100.135 744.61 99.5008 745.086 99.5008C745.403 99.5008 745.72 100.135 745.72 101.086ZM698.005 109.012C696.737 110.28 691.822 110.122 691.822 108.695C691.822 108.061 692.615 107.427 693.408 107.427C694.359 107.427 694.834 106.951 694.834 106.159C694.2 102.83 695.31 102.196 696.895 105.049C698.005 106.793 698.48 108.537 698.005 109.012ZM738.586 105.842C737.001 107.585 735.099 109.012 734.148 109.012C733.355 109.012 734.306 107.585 736.367 105.842C741.281 101.879 742.232 101.879 738.586 105.842ZM714.808 107.427C715.284 108.219 715.125 109.012 714.174 109.012C713.381 109.012 712.113 108.219 711.638 107.427C711.162 106.476 711.321 105.842 712.272 105.842C713.064 105.842 714.333 106.476 714.808 107.427ZM679.616 109.329C679.299 110.122 676.763 110.597 674.227 110.597C671.532 110.597 669.788 109.963 670.422 109.012C670.898 108.219 673.434 107.744 675.812 107.902C678.348 108.061 680.092 108.695 679.616 109.329ZM660.594 111.707C659.96 113.134 659.008 113.292 656.789 112.024C652.985 109.963 652.985 109.805 657.582 109.805C659.801 109.805 661.069 110.597 660.594 111.707ZM632.852 112.5C632.535 113.451 630.475 114.402 628.414 114.56C625.085 114.877 624.926 114.719 627.621 112.658C631.267 110.122 633.645 109.963 632.852 112.5ZM644.266 112.817C644.266 113.134 643.156 113.768 641.888 114.402C640.62 114.877 639.51 114.56 639.51 113.768C639.51 112.817 640.62 112.183 641.888 112.183C643.156 112.183 644.266 112.5 644.266 112.817ZM616.525 115.353C618.585 115.353 619.061 115.829 617.793 117.097C616.683 118.206 614.622 118.048 610.818 116.146C606.696 114.402 606.379 113.926 609.391 114.56C611.61 114.877 614.781 115.353 616.525 115.353ZM139.216 121.852C137.155 122.645 136.997 123.121 138.582 123.121C140.009 123.279 139.375 124.23 136.997 125.34C133.509 127.242 132.875 127.084 131.132 124.23C129.546 121.377 129.705 120.743 132.717 119.95C134.619 119.475 137.631 119.475 139.216 119.95C141.33 120.373 141.33 121.007 139.216 121.852ZM569.761 120.901C569.761 122.328 568.81 122.803 567.383 122.328C566.115 121.694 565.481 120.743 565.956 119.95C567.224 117.731 569.761 118.365 569.761 120.901ZM77.5512 122.962C77.0757 123.438 75.8075 122.962 74.6979 121.852C73.2712 120.267 73.4297 120.109 75.649 121.06C77.2342 121.535 78.0268 122.486 77.5512 122.962ZM109.731 122.803C110.048 124.072 108.939 124.864 107.036 124.864C103.707 124.864 101.488 122.803 103.232 121.06C104.817 119.475 108.939 120.584 109.731 122.803ZM126.851 122.486C128.437 123.755 129.071 124.864 127.961 124.864C124.949 124.864 121.145 123.121 121.145 121.535C121.145 119.475 123.364 119.792 126.851 122.486ZM151.898 122.486C152.373 123.755 152.056 124.864 151.264 124.864C150.313 124.864 149.679 123.755 149.679 122.486C149.679 121.218 149.996 120.109 150.313 120.109C150.63 120.109 151.264 121.218 151.898 122.486ZM176.627 121.694C176.627 122.486 175.993 123.279 175.042 123.279C174.249 123.279 173.457 122.486 173.457 121.694C173.457 120.743 174.249 120.109 175.042 120.109C175.993 120.109 176.627 120.743 176.627 121.694ZM65.1866 122.645C64.711 123.121 63.2843 123.279 62.1747 122.803C60.9065 122.328 61.382 121.852 63.1258 121.852C64.8695 121.694 65.8206 122.169 65.1866 122.645ZM192.479 123.279C192.479 124.072 191.211 124.864 189.785 124.864C187.407 124.864 187.248 124.547 189.309 123.279C192.321 121.377 192.479 121.377 192.479 123.279ZM509.523 129.937C509.523 132.949 509.206 133.107 507.937 131.205C506.669 129.303 506.352 129.303 506.352 131.047C506.352 132.632 505.56 132.632 502.389 130.571C500.17 129.144 497.475 128.352 496.524 128.986C495.414 129.62 495.256 129.461 495.89 128.352C496.524 127.242 499.853 126.449 503.34 126.449C508.73 126.449 509.523 126.925 509.523 129.937ZM436.603 134.693C436.603 135.327 435.017 136.595 433.274 137.704C430.579 139.131 430.103 138.973 431.054 137.387C432.006 135.961 431.53 135.802 429.786 136.436C426.299 137.863 422.811 138.814 424.396 138.022C425.031 137.546 425.506 136.119 425.506 134.693C425.506 132.315 425.189 132.315 423.921 134.376C422.811 136.119 422.336 136.278 422.336 134.693C422.336 133.424 423.762 132.156 425.506 131.681C427.25 131.205 428.677 130.095 428.677 129.303C428.677 127.718 436.444 132.949 436.603 134.693ZM441.358 130.413C442.944 132.315 442.943 132.79 440.724 132.79C439.297 132.79 438.188 131.681 438.188 130.413C438.188 129.144 438.505 128.035 438.822 128.035C439.139 128.035 440.249 129.144 441.358 130.413ZM375.413 136.595C374.145 139.765 372.084 139.765 368.755 136.595C366.378 134.217 366.536 134.059 369.548 135.01C371.45 135.644 373.353 135.327 373.987 134.376C375.572 131.839 376.682 133.424 375.413 136.595ZM420.75 134.693C420.75 135.485 418.848 135.485 416.629 135.01C413.3 134.217 412.666 134.376 413.617 135.961C414.41 137.387 414.251 137.704 412.983 136.912C412.032 136.278 411.556 135.01 412.032 134.217C413.141 132.473 420.75 132.949 420.75 134.693ZM309.31 136.436C309.627 136.912 308.359 137.705 306.456 138.339C304.237 139.131 302.493 138.814 302.176 137.704C301.859 136.753 300.908 136.278 300.116 136.912C299.323 137.387 298.689 136.912 298.689 135.961C298.689 134.217 307.566 134.693 309.31 136.436ZM348.623 135.961C349.257 136.912 350.367 137.07 351.318 136.595C352.428 135.961 352.586 136.278 351.952 137.387C351.001 138.814 350.208 138.814 348.623 137.546C347.514 136.595 345.294 136.436 343.868 137.07C341.807 137.705 341.331 137.546 342.124 136.278C343.551 133.9 347.355 133.741 348.623 135.961ZM357.976 136.753C356.866 139.29 354.171 140.082 354.171 137.704C354.171 136.436 355.281 135.644 358.452 134.534C358.61 134.376 358.452 135.485 357.976 136.753ZM364.475 135.802C364 136.595 364.951 137.705 366.378 138.022C368.121 138.497 367.646 138.814 364.951 138.973C360.671 139.131 359.403 137.705 361.622 135.485C363.207 133.9 365.585 134.217 364.475 135.802ZM387.144 136.595C386.827 137.387 384.291 138.339 381.279 138.497C375.73 138.973 376.206 136.912 381.913 135.485C386.034 134.534 387.778 134.851 387.144 136.595ZM403.313 135.961C402.045 136.753 399.826 137.387 398.557 137.387C396.972 137.387 397.289 136.912 399.35 135.961C403.63 134.059 406.167 134.059 403.313 135.961ZM56.1508 151.971C56.1508 153.715 51.8708 153.874 50.7611 152.13C50.4441 151.496 51.3952 150.703 53.1389 150.703C54.7241 150.545 56.1508 151.02 56.1508 151.971ZM62.4917 151.179C62.4917 152.447 59.4798 153.24 58.6872 152.13C58.2116 151.337 58.8457 150.703 60.1139 150.703C61.382 150.703 62.4917 151.02 62.4917 151.179ZM112.743 151.179C112.267 151.654 110.841 151.813 109.731 151.337C108.463 150.862 108.939 150.386 110.682 150.386C112.426 150.228 113.377 150.703 112.743 151.179ZM121.62 155.3C123.205 157.837 123.84 159.739 123.047 159.739C121.779 159.739 117.974 152.923 117.974 150.703C117.974 149.594 118.133 149.752 121.62 155.3ZM841.942 154.349C841.467 154.825 840.04 154.983 838.93 154.508C837.662 154.032 838.138 153.557 839.882 153.557C841.625 153.398 842.576 153.874 841.942 154.349ZM117.499 158.471C117.023 159.739 116.548 159.263 116.548 157.52C116.389 155.776 116.865 154.825 117.34 155.459C117.816 155.934 117.974 157.361 117.499 158.471ZM174.725 157.995C176.31 158.946 175.993 159.58 173.298 160.215C169.177 161.324 167.909 160.69 169.494 158.312C170.603 156.252 171.872 156.093 174.725 157.995ZM218.635 158.154C219.111 159.105 218.477 159.263 217.209 158.788C214.355 157.678 213.88 156.569 216.099 156.569C217.05 156.569 218.16 157.203 218.635 158.154ZM133.826 159.739C133.826 160.532 133.509 161.324 133.192 161.324C132.717 161.324 131.924 160.532 131.449 159.739C130.973 158.788 131.29 158.154 132.083 158.154C133.034 158.154 133.826 158.788 133.826 159.739ZM149.52 158.629C149.203 158.788 147.618 160.056 146.191 161.166C143.813 163.068 143.338 162.909 143.338 160.69C143.338 159.105 144.606 158.154 146.825 158.154C148.727 158.154 149.837 158.312 149.52 158.629ZM162.36 159.739C162.36 160.532 161.726 161.324 160.775 161.324C159.982 161.324 159.19 160.532 159.19 159.739C159.19 158.788 159.982 158.154 160.775 158.154C161.726 158.154 162.36 158.788 162.36 159.739ZM735.416 180.347C735.891 181.298 735.257 181.456 733.989 180.981C731.136 179.871 730.66 178.762 732.88 178.762C733.831 178.762 734.94 179.396 735.416 180.347ZM759.67 182.091C760.145 183.834 759.828 183.834 758.56 181.932C756.975 179.871 756.816 179.871 756.816 181.932C756.816 183.517 756.341 183.676 755.548 182.566C754.914 181.615 753.329 180.347 752.061 179.871C750.792 179.396 751.744 179.079 754.28 179.396C756.975 179.554 759.353 180.822 759.67 182.091ZM658.533 188.907C658.533 189.224 657.423 190.017 655.997 190.492C654.728 190.968 654.094 190.809 654.57 189.858C655.521 188.273 658.533 187.639 658.533 188.907ZM260.01 197.784C265.875 196.357 267.143 198.26 262.387 200.955C258.9 202.698 252.242 200.955 250.34 197.626C249.389 196.357 249.864 196.199 251.925 197.309C253.51 198.26 256.998 198.418 260.01 197.784ZM272.374 199.052C271.582 199.686 270.472 200.796 269.996 201.43C269.521 202.223 268.57 201.747 268.094 200.638C267.619 199.211 268.57 198.418 270.472 198.26C272.216 198.101 273.008 198.418 272.374 199.052ZM218.318 202.223C217.843 203.332 216.892 203.808 216.416 203.015C215.941 202.381 214.831 201.272 214.038 200.638C213.404 200.003 214.197 199.686 215.941 199.845C217.843 200.003 218.794 200.796 218.318 202.223ZM324.052 216.173C324.052 217.441 323.26 218.075 322.467 217.599C321.516 216.965 321.199 215.856 321.674 215.063C323.101 212.844 324.052 213.319 324.052 216.173ZM290.763 218.551C290.763 219.185 289.97 220.294 289.178 220.77C288.226 221.404 288.068 222.514 288.543 223.465C289.178 224.574 288.861 224.733 287.909 224.099C285.215 222.514 285.532 217.282 288.385 217.282C289.653 217.282 290.763 217.916 290.763 218.551ZM149.679 233.61C149.679 234.878 148.886 235.512 148.093 235.037C147.142 234.403 146.825 233.293 147.301 232.5C148.727 230.281 149.679 230.757 149.679 233.61ZM95.7812 240.585C97.842 241.853 97.842 242.17 95.4642 242.17C94.0375 242.17 92.2938 241.378 91.8182 240.585C90.55 238.524 92.6108 238.524 95.7812 240.585ZM705.297 240.585C704.821 241.378 703.553 242.17 702.76 242.17C701.809 242.17 701.651 241.378 702.126 240.585C702.602 239.634 703.87 239 704.663 239C705.614 239 705.772 239.634 705.297 240.585ZM81.5143 242.17C81.5143 242.963 80.7217 243.755 79.7706 243.755C78.9779 243.755 78.6609 242.963 79.1365 242.17C79.612 241.219 80.4046 240.585 80.8802 240.585C81.1972 240.585 81.5143 241.219 81.5143 242.17ZM74.6979 243.121C74.2223 243.597 72.7956 243.755 71.686 243.28C70.4178 242.804 70.8933 242.329 72.6371 242.329C74.3808 242.17 75.3319 242.646 74.6979 243.121ZM491.61 255.803C491.134 256.279 489.707 256.437 488.598 255.962C487.33 255.486 487.805 255.01 489.549 255.01C491.293 254.852 492.244 255.327 491.61 255.803ZM505.401 257.23C504.767 258.498 503.816 259.132 503.023 258.656C501.279 257.705 502.706 254.852 504.767 254.852C505.56 254.852 505.877 255.962 505.401 257.23ZM435.017 259.766C435.017 260.717 434.383 260.876 433.432 260.4C432.006 259.608 431.213 261.51 431.53 264.522C431.688 265.156 430.262 265.948 428.677 266.424C426.933 266.9 425.823 266.583 426.299 265.948C428.042 263.095 423.604 262.62 421.543 265.314C418.69 269.277 416.787 267.217 419.482 262.937C420.592 261.034 422.494 259.925 423.921 260.4C425.348 260.876 427.884 260.242 429.469 258.974C432.64 256.596 435.017 257.071 435.017 259.766ZM392.217 261.193C392.217 261.985 393.802 262.778 395.863 262.778C399.033 262.937 399.033 263.095 396.497 264.522C392.851 266.741 387.302 264.839 388.571 261.827C389.522 259.291 392.217 258.815 392.217 261.193ZM409.971 261.827C412.349 261.827 413.617 262.62 412.983 263.254C410.922 265.314 401.252 263.888 400.46 261.351C399.826 259.608 400.46 259.449 402.679 260.4C404.423 261.034 407.593 261.668 409.971 261.827ZM377.95 263.412C377.95 263.888 377.316 264.68 376.364 265.156C375.572 265.631 374.779 265.314 374.779 264.522C374.779 263.571 375.572 262.778 376.364 262.778C377.316 262.778 377.95 263.095 377.95 263.412ZM26.0317 267.534C26.0317 268.326 24.9221 268.643 23.6539 268.168C22.3857 267.534 21.2761 266.9 21.2761 266.583C21.2761 266.266 22.3857 265.948 23.6539 265.948C24.9221 265.948 26.0317 266.583 26.0317 267.534ZM268.57 267.851C268.57 269.119 269.045 269.277 269.838 268.326C271.582 265.79 274.911 265.79 273.96 268.326C273.325 269.753 271.265 270.387 267.302 270.07C260.644 269.436 258.266 265.948 264.448 265.948C266.668 265.948 268.57 266.9 268.57 267.851ZM47.9077 271.497C47.4321 271.972 46.481 271.18 46.0055 269.594C45.0543 267.375 45.2128 267.217 46.7981 268.643C47.9077 269.753 48.3833 271.021 47.9077 271.497ZM86.2699 269.119C86.2699 271.021 81.5143 274.35 80.5632 273.399C78.8194 271.814 81.0387 268.009 83.7336 268.009C85.1603 268.009 86.2699 268.643 86.2699 269.119ZM193.431 273.399C192.638 276.094 191.845 277.045 191.053 275.777C188.992 272.448 182.968 272.131 182.968 275.143C182.968 277.362 182.651 277.521 181.541 275.46C180.432 273.875 180.907 272.606 183.127 271.021C185.98 269.119 186.773 269.119 189.626 271.814C191.528 273.399 192.479 273.716 191.845 272.606C191.211 271.655 191.211 269.911 191.687 268.96C193.589 266.107 194.54 268.802 193.431 273.399ZM220.379 269.911C216.733 272.765 214.672 272.923 214.672 270.546C214.672 269.753 215.307 269.277 215.941 269.753C216.575 270.07 218.16 269.911 219.428 268.96C223.074 266.741 223.708 267.375 220.379 269.911ZM40.2987 270.704C40.2987 271.497 39.189 271.814 37.9209 271.338C36.6527 270.704 35.543 270.07 35.543 269.753C35.543 269.436 36.6527 269.119 37.9209 269.119C39.189 269.119 40.2987 269.753 40.2987 270.704ZM65.1866 270.07C64.711 270.546 63.2843 270.704 62.1747 270.229C60.9065 269.753 61.382 269.277 63.1258 269.277C64.8695 269.119 65.8206 269.594 65.1866 270.07ZM75.1734 270.704C76.9172 271.814 76.9172 272.289 75.4905 272.289C74.3808 272.289 73.9053 273.082 74.5393 274.033C75.0149 274.984 73.7467 274.509 71.3689 273.082C69.1496 271.497 67.2473 270.07 67.2473 269.753C67.2473 268.485 72.7956 269.277 75.1734 270.704ZM92.6108 270.704C92.6108 271.497 91.5011 271.814 90.233 271.338C88.9648 270.704 87.8551 270.07 87.8551 269.753C87.8551 269.436 88.9648 269.119 90.233 269.119C91.5011 269.119 92.6108 269.753 92.6108 270.704ZM152.849 271.655C152.849 271.972 151.739 272.289 150.471 272.289C149.203 272.289 148.093 271.655 148.093 270.704C148.093 269.911 149.203 269.594 150.471 270.07C151.739 270.704 152.849 271.338 152.849 271.655ZM166.64 271.655C166.165 272.131 164.738 272.289 163.628 271.814C162.36 271.338 162.836 270.863 164.58 270.863C166.323 270.704 167.274 271.18 166.64 271.655Z" fill="#171717"/>
<path fill-rule="evenodd" clip-rule="evenodd" d="M585.772 121.535C584.503 122.328 584.186 123.755 584.82 124.864C585.772 126.291 586.406 126.132 587.515 124.23C589.418 120.901 588.625 119.792 585.772 121.535Z" fill="#171717"/>
<path fill-rule="evenodd" clip-rule="evenodd" d="M537.899 129.144C536.525 130.941 536.842 131.099 538.85 129.62C540.594 128.352 542.337 127.084 542.654 126.925C542.971 126.608 542.654 126.449 541.703 126.449C540.752 126.449 539.008 127.718 537.899 129.144Z" fill="#171717"/>
<path fill-rule="evenodd" clip-rule="evenodd" d="M474.648 131.205C474.648 132.79 475.758 133.107 480.197 133.107C484.635 133.107 485.745 132.79 485.745 130.888C485.745 129.461 485.269 129.461 484.001 130.729C482.733 131.997 480.831 131.997 478.453 131.205C476.075 130.254 474.648 130.254 474.648 131.205Z" fill="#171717"/>
<path fill-rule="evenodd" clip-rule="evenodd" d="M681.202 188.907C681.519 189.858 682.946 190.809 684.372 191.126C686.116 191.443 686.75 190.968 686.275 189.382C685.165 186.846 680.409 186.371 681.202 188.907Z" fill="#171717"/>
<path fill-rule="evenodd" clip-rule="evenodd" d="M591.32 196.358C591.795 197.15 593.222 197.784 594.649 197.784C597.661 197.784 596.076 195.723 592.747 195.248C591.478 195.089 590.686 195.565 591.32 196.358Z" fill="#171717"/>
<path fill-rule="evenodd" clip-rule="evenodd" d="M609.074 195.723C610.977 196.04 612.086 197.15 611.611 198.101C610.977 198.894 612.245 198.735 614.306 197.784C620.012 194.772 620.012 194.614 612.403 194.772C608.599 194.931 607.014 195.406 609.074 195.723Z" fill="#171717"/>
<path d="M642.681 197.784C643.556 197.784 644.266 197.074 644.266 196.199C644.266 195.323 643.556 194.614 642.681 194.614C641.805 194.614 641.096 195.323 641.096 196.199C641.096 197.074 641.805 197.784 642.681 197.784Z" fill="#171717"/>
<path fill-rule="evenodd" clip-rule="evenodd" d="M151.898 197.943C154.276 199.369 154.434 200.003 152.691 201.113C151.264 202.064 154.593 202.381 161.251 201.906C167.116 201.589 171.872 201.747 171.872 202.381C171.872 203.808 178.054 204.284 184.236 203.332C189.785 202.381 191.211 200.003 186.297 200.003C184.553 200.003 183.602 200.638 183.919 201.272C184.395 201.906 183.919 202.54 183.127 202.54C182.176 202.54 181.383 201.747 181.383 200.796C181.383 200.003 180.749 199.528 179.956 200.162C179.164 200.638 178.054 200.321 177.42 199.528C176.944 198.577 172.03 198.418 165.689 198.894C158.397 199.528 154.593 199.211 153.8 197.943C153.166 196.992 151.739 196.199 150.788 196.199C149.679 196.199 150.154 196.992 151.898 197.943Z" fill="#171717"/>
<path fill-rule="evenodd" clip-rule="evenodd" d="M145.717 199.369C145.241 200.162 145.558 200.955 146.351 200.955C147.302 200.955 148.094 200.162 148.094 199.369C148.094 198.418 147.777 197.784 147.46 197.784C146.985 197.784 146.192 198.418 145.717 199.369Z" fill="#171717"/>
<path fill-rule="evenodd" clip-rule="evenodd" d="M589.577 199.369C590.052 200.162 591.796 200.955 593.223 200.955C595.6 200.955 595.6 200.637 593.54 199.369C590.369 197.309 588.308 197.309 589.577 199.369Z" fill="#171717"/>
<path fill-rule="evenodd" clip-rule="evenodd" d="M191.846 201.906C190.419 205.71 190.736 206.344 192.956 204.283C194.224 203.332 195.65 203.015 196.284 203.649C198.821 206.186 201.991 205.234 201.991 202.064C201.991 199.528 201.516 199.211 200.089 200.637C198.979 201.747 197.394 201.906 195.492 200.954C193.59 199.845 192.48 200.162 191.846 201.906Z" fill="#171717"/>
<path fill-rule="evenodd" clip-rule="evenodd" d="M585.613 200.955C585.613 201.747 586.406 202.54 587.357 202.54C588.15 202.54 588.467 201.747 587.991 200.955C587.516 200.003 586.723 199.369 586.247 199.369C585.93 199.369 585.613 200.003 585.613 200.955Z" fill="#171717"/>
<path fill-rule="evenodd" clip-rule="evenodd" d="M511.108 204.125C511.108 204.918 512.218 205.235 513.486 204.759C514.754 204.125 515.864 203.491 515.864 203.174C515.864 202.857 514.754 202.54 513.486 202.54C512.218 202.54 511.108 203.174 511.108 204.125Z" fill="#171717"/>
<path fill-rule="evenodd" clip-rule="evenodd" d="M461.966 210.466C461.966 211.259 462.759 212.051 463.71 212.051C464.503 212.051 464.82 211.259 464.344 210.466C463.869 209.515 463.076 208.881 462.6 208.881C462.283 208.881 461.966 209.515 461.966 210.466Z" fill="#171717"/>
<path fill-rule="evenodd" clip-rule="evenodd" d="M418.374 213.636C418.849 214.429 419.642 215.222 420.118 215.222C420.435 215.222 420.752 214.429 420.752 213.636C420.752 212.685 419.959 212.051 419.008 212.051C418.215 212.051 417.898 212.685 418.374 213.636Z" fill="#171717"/>
<path fill-rule="evenodd" clip-rule="evenodd" d="M366.854 215.222C368.122 216.014 370.024 216.807 370.817 216.807C371.768 216.807 371.292 216.014 370.024 215.222C368.756 214.429 367.012 213.636 366.061 213.636C365.268 213.636 365.585 214.429 366.854 215.222Z" fill="#171717"/>
<path d="M362.098 218.392C362.973 218.392 363.683 217.682 363.683 216.807C363.683 215.931 362.973 215.222 362.098 215.222C361.222 215.222 360.513 215.931 360.513 216.807C360.513 217.682 361.222 218.392 362.098 218.392Z" fill="#171717"/>
<path fill-rule="evenodd" clip-rule="evenodd" d="M312.164 221.563C311.688 222.514 312.322 222.672 313.59 222.197C316.444 221.087 316.919 219.977 314.7 219.977C313.749 219.977 312.639 220.611 312.164 221.563Z" fill="#171717"/>
<path fill-rule="evenodd" clip-rule="evenodd" d="M262.388 224.574C260.961 225.525 261.754 225.842 265.083 225.684C267.778 225.525 270.473 224.891 271.107 224.257C272.692 222.672 265.083 222.83 262.388 224.574Z" fill="#171717"/>
<path fill-rule="evenodd" clip-rule="evenodd" d="M273.326 226.318C273.326 227.111 274.118 227.903 275.069 227.903C275.862 227.903 276.179 227.111 275.704 226.318C275.228 225.367 274.435 224.733 273.96 224.733C273.643 224.733 273.326 225.367 273.326 226.318Z" fill="#171717"/>
<path fill-rule="evenodd" clip-rule="evenodd" d="M220.538 228.537C219.587 231.074 220.855 232.976 222.758 231.708C224.66 230.598 224.501 226.318 222.758 226.318C221.965 226.318 221.014 227.269 220.538 228.537Z" fill="#171717"/>
<path fill-rule="evenodd" clip-rule="evenodd" d="M230.525 227.903C228.464 229.171 228.623 229.488 231.001 229.488C232.427 229.488 233.695 228.696 233.695 227.903C233.695 226.001 233.537 226.001 230.525 227.903Z" fill="#171717"/>
<path fill-rule="evenodd" clip-rule="evenodd" d="M166.007 233.768C164.897 234.085 163.946 235.037 163.946 235.829C163.946 237.89 168.543 239 169.653 237.097C170.445 235.988 169.97 235.829 168.701 236.622C167.116 237.573 166.799 237.256 167.592 235.354C168.067 233.768 168.384 232.659 168.226 232.817C168.067 232.817 166.958 233.293 166.007 233.768Z" fill="#171717"/>
<path fill-rule="evenodd" clip-rule="evenodd" d="M540.435 258.339C540.593 261.193 541.703 261.985 545.349 262.302C548.519 262.461 548.836 262.302 546.459 261.668C544.398 261.351 542.813 260.4 542.813 259.607C542.813 258.815 544.081 258.498 545.666 259.132C547.885 259.924 547.727 259.607 545.19 257.547C540.91 254.059 540.118 254.218 540.435 258.339Z" fill="#171717"/>
<path fill-rule="evenodd" clip-rule="evenodd" d="M553.751 256.279C555.494 257.388 555.336 257.864 552.958 258.34C550.58 258.974 550.739 259.291 554.385 260.4C556.763 261.034 559.299 261.193 559.774 260.717C561.043 259.449 556.128 254.852 553.592 254.852C552.007 254.852 552.007 255.169 553.751 256.279Z" fill="#171717"/>
<path fill-rule="evenodd" clip-rule="evenodd" d="M603.843 256.437C603.368 257.23 604.002 258.022 605.27 258.022C606.697 258.022 607.806 258.973 607.806 259.925C607.806 261.351 608.282 261.51 609.075 260.242C609.709 259.291 611.294 258.022 612.562 257.388C613.83 256.913 613.355 256.754 611.452 257.071C609.392 257.388 607.806 257.071 607.806 256.279C607.806 254.376 605.112 254.535 603.843 256.437Z" fill="#171717"/>
<path fill-rule="evenodd" clip-rule="evenodd" d="M626.511 255.961C627.621 256.437 629.048 256.279 629.523 255.803C630.157 255.327 629.206 254.852 627.463 255.01C625.719 255.01 625.243 255.486 626.511 255.961Z" fill="#171717"/>
<path fill-rule="evenodd" clip-rule="evenodd" d="M490.184 263.888C491.135 264.205 493.037 264.205 494.147 263.888C495.098 263.412 494.306 263.095 492.086 263.095C489.867 263.095 489.074 263.412 490.184 263.888Z" fill="#171717"/>
<path fill-rule="evenodd" clip-rule="evenodd" d="M333.564 267.534C331.503 268.802 331.662 269.119 334.04 269.119C335.466 269.119 336.735 268.326 336.735 267.534C336.735 265.631 336.576 265.631 333.564 267.534Z" fill="#171717"/>
<path fill-rule="evenodd" clip-rule="evenodd" d="M316.761 269.912C317.395 271.655 316.602 272.289 313.749 272.289C308.201 272.289 307.408 274.984 313.115 275.143C315.968 275.143 319.297 273.875 321.992 271.338L326.114 267.534H320.882C317.078 267.534 315.968 268.168 316.761 269.912Z" fill="#171717"/>
<path fill-rule="evenodd" clip-rule="evenodd" d="M327.223 269.753C327.223 271.021 325.955 272.448 324.528 272.765C322.943 273.24 324.211 273.558 327.223 273.716C331.028 273.716 331.979 273.399 330.552 272.448C329.442 271.655 328.967 270.229 329.442 269.277C330.077 268.326 329.759 267.534 328.967 267.534C328.016 267.534 327.223 268.485 327.223 269.753Z" fill="#171717"/>
<path fill-rule="evenodd" clip-rule="evenodd" d="M210.076 277.045C208.649 277.838 209.442 278.155 212.137 278.155C216.734 278.155 217.209 277.838 214.197 276.57C212.929 276.094 211.027 276.252 210.076 277.045Z" fill="#171717"/>
</svg>
